<svg width="20" height="14" viewBox="0 0 20 14" fill="none" xmlns="http://www.w3.org/2000/svg">
<path d="M16.8521 2.12211C14.7127 0.578809 12.7192 0.506749 12.3423 0.506749L12.0992 0.740946C14.7856 1.49758 16.1106 2.67457 16.1471 2.7106C9.03594 -0.748308 3.15859 2.59651 3.02487 2.62653C3.02487 2.62653 4.34378 1.34145 7.24903 0.656875L7.07885 0.482728C7.07885 0.482728 4.87864 0.398658 2.4961 2.1101C2.4961 2.1101 0.119629 6.13949 0.119629 11.1057C0.119629 11.1057 1.43854 13.3335 5.04882 13.4176C5.04882 13.4176 5.5776 12.733 6.11246 12.1325C4.11282 11.544 3.31661 10.3731 3.2923 10.337C3.30446 10.343 3.48072 10.4271 3.72991 10.5952H3.80893C3.85147 10.5952 3.86971 10.6133 3.88794 10.6313V10.6373C3.90617 10.6613 3.92441 10.6733 3.96695 10.6733C8.28228 12.4028 11.8865 12.8051 16.0012 10.2409C15.9769 10.277 15.1807 11.448 13.096 12.0365C13.5336 12.631 14.1414 13.3155 14.1414 13.3155C17.7578 13.2375 19.1618 11.0096 19.2408 11.1057C19.2408 6.1575 16.8521 2.12211 16.8521 2.12211ZM6.63516 9.56237C5.71131 9.56237 4.96373 8.79372 4.96373 7.85093C4.96373 6.90213 5.71131 6.13949 6.63516 6.13949L6.64124 6.13348C7.56508 6.13348 8.30659 6.90213 8.30659 7.84492C8.30659 8.79372 7.559 9.56237 6.63516 9.56237ZM12.6219 9.56237C11.6981 9.56237 10.9505 8.79372 10.9505 7.85093C10.9505 6.90213 11.7041 6.13949 12.6219 6.13949V6.13348C13.5458 6.13348 14.2933 6.90213 14.2933 7.84492C14.2994 8.79372 13.5458 9.56237 12.6219 9.56237Z" fill="#614E56"/>
</svg>
