<svg width="18" height="20" viewBox="0 0 18 20" fill="none" xmlns="http://www.w3.org/2000/svg">
<path d="M17.5344 12.7242C17.5344 12.9117 17.5058 13.0993 17.4544 13.2811C17.3859 13.5028 17.323 13.7301 17.2545 13.9518C17.2259 14.037 17.1688 14.1109 17.1288 14.1905C17.1002 14.1848 17.1002 14.1848 17.0717 14.1848C17.0545 14.1166 17.0317 14.0541 17.0202 13.9859C16.946 13.5255 16.7174 13.1618 16.3518 12.8719C15.9234 12.5309 15.432 12.3093 14.935 12.099C14.3809 11.8603 13.8153 11.6272 13.2611 11.3829C12.747 11.1555 12.2671 10.877 11.8557 10.4849C11.3244 9.97903 11.1359 9.35385 11.2273 8.61499C11.2902 8.63772 11.3416 8.63772 11.3701 8.66614C11.7415 8.9901 12.1985 9.12082 12.667 9.21176C13.2326 9.31974 13.8096 9.39363 14.3751 9.50162C14.9522 9.6096 15.512 9.77442 16.0319 10.07C16.7974 10.5133 17.2773 11.1498 17.4773 12.008C17.5115 12.1558 17.5401 12.4002 17.5401 12.5537V12.7242H17.5344Z" fill="#614E56"/>
<path d="M11.8442 19.8115C11.4272 19.5956 11.1473 19.2205 10.9416 18.7601C10.8045 18.4589 10.6731 18.1576 10.5188 17.8621C10.2675 17.379 9.89041 17.038 9.34769 16.9016C8.79924 16.7652 8.26223 17.0948 8.18796 17.6063C8.10798 18.1406 8.72498 18.6407 9.23343 18.4646C9.50765 18.3679 9.66761 18.1179 9.63905 17.8223C9.61048 17.5495 9.43338 17.379 9.13059 17.3392C8.96492 17.3165 8.83352 17.3733 8.72498 17.4927C8.68499 17.5381 8.65071 17.5893 8.59358 17.6632C8.61072 17.2881 8.93064 17.0778 9.30198 17.163C9.93612 17.3108 10.1589 18.0894 9.70189 18.5782C9.38196 18.9249 8.83352 19.0045 8.36506 18.7601C8.24509 18.6976 8.13654 18.6123 8.03371 18.5271C7.91374 18.4248 7.72521 18.2486 7.62238 18.1349C7.13678 17.5893 6.5255 17.2881 5.79995 17.2142C5.70283 17.2028 5.60571 17.1744 5.46289 17.1403C5.81138 16.8107 6.14844 16.5549 6.51978 16.3446C7.16534 15.9695 7.8509 15.6796 8.59929 15.6398C9.45623 15.6001 10.2618 15.7592 10.8845 16.4242C11.2387 16.805 11.3644 17.271 11.4558 17.7598C11.5129 18.0553 11.5586 18.3566 11.6157 18.6521C11.7757 19.4933 12.307 19.749 13.1239 19.6013C13.2839 19.5728 13.4439 19.516 13.6095 19.4876C13.3639 19.7377 13.0668 19.8797 12.724 19.9366C12.724 19.9366 12.724 19.9366 12.7183 19.9366C12.4155 19.982 12.107 19.9479 11.8442 19.8115Z" fill="#614E56"/>
<path d="M7.07398 7.55153C6.88545 7.34124 6.69121 7.13095 6.50268 6.92066C5.80571 6.15907 5.11444 5.39748 4.42318 4.63589C3.7719 3.92546 3.12063 3.21502 2.46935 2.4989C1.94376 1.93054 0.309863 0.236859 0.292725 0.248226C0.327002 0.299377 0.355567 0.350529 0.395557 0.395997C0.709769 0.782476 1.03541 1.16895 1.35533 1.55543C2.05231 2.41364 2.74929 3.27185 3.44626 4.12438C4.13182 4.95985 4.81737 5.78965 5.50292 6.61944C5.85141 7.0457 6.1999 7.46628 6.53696 7.89823C6.69121 8.09715 6.67978 8.24492 6.47983 8.38133C6.07421 8.6655 5.54862 8.75644 5.20585 8.26766C4.98876 7.95506 4.77166 7.64815 4.566 7.32988C4.00042 6.46598 3.44626 5.60209 2.88068 4.7382C2.84641 4.68136 2.79499 4.63589 2.74929 4.58474C2.92067 4.99964 3.13777 5.38612 3.34914 5.76691C3.80618 6.59102 4.26321 7.42081 4.72596 8.24492C4.8745 8.50068 4.86307 8.71665 4.65169 8.93831C4.41746 9.1827 4.29178 9.48393 4.23465 9.81925C4.16609 10.2114 4.10325 10.6036 4.00042 10.9844C3.8176 11.655 3.38342 12.1893 2.97209 12.7292C2.72643 13.0532 2.4465 13.3601 2.2694 13.7238C1.87521 14.5422 2.0466 15.3493 2.4465 16.1166C2.6693 16.5428 2.92639 16.9464 3.18918 17.3897C3.27488 17.3783 4.42889 17.0373 4.86878 16.8441C5.10873 16.7418 5.32582 16.5713 5.51435 16.3894C6.1142 15.8381 6.06279 15.0822 5.41723 14.5877C5.20013 14.4229 4.97162 14.2638 4.76024 14.0933C4.22322 13.667 4.07469 13.0816 4.34319 12.445C4.45174 12.195 4.566 11.9449 4.68026 11.6948C4.83451 11.3595 4.94305 11.0128 4.97733 10.6377C4.99447 10.3819 5.02875 10.1318 5.08016 9.88177C5.13729 9.59191 5.32582 9.42141 5.62289 9.37594C5.75429 9.35889 5.88569 9.34184 6.01708 9.31342C6.47412 9.2168 6.89116 9.0463 7.15967 8.64277C7.42246 8.25061 7.3939 7.90391 7.07398 7.55153ZM3.25202 15.0935C3.17776 15.1333 3.0635 15.139 2.99494 15.1106C2.94353 15.0879 2.90353 14.9571 2.92639 14.9003C2.9778 14.7639 2.96066 14.6502 2.89211 14.5536C2.86354 14.5195 2.86926 14.4684 2.89782 14.4343C2.98352 14.3433 3.08635 14.3661 3.18347 14.4058C3.32629 14.4627 3.40056 14.5764 3.41199 14.7355C3.4177 14.8833 3.38913 15.0253 3.25202 15.0935Z" fill="#614E56"/>
<path d="M7.02818 4.19312C7.86226 4.19312 8.60494 4.59096 9.21623 5.15363C9.43332 5.35255 9.63898 5.56284 9.83894 5.77313C9.93606 5.88112 10.0846 5.92659 10.2274 5.89817C11.1186 5.73335 11.9927 5.79587 12.8611 6.02889C13.3524 6.15961 13.798 6.38695 14.2265 6.64839C14.3579 6.72796 14.4264 6.84163 14.455 6.9894C14.5407 7.41567 14.5464 7.83625 14.3521 8.23409C14.3464 8.25114 14.335 8.26819 14.3293 8.28524C14.2722 8.42165 14.295 8.54669 14.4207 8.63762C14.5464 8.72856 14.6778 8.70014 14.7863 8.6092C14.9749 8.46143 15.0606 8.25114 15.1291 8.03517C15.1748 7.89308 15.2148 7.75099 15.2548 7.60322C15.7347 7.84761 16.4202 9.14914 16.3917 9.76864C16.3402 9.71181 16.3003 9.6777 16.2717 9.63224C15.9918 9.20029 15.5747 8.96727 15.0777 8.89338C14.6207 8.83086 14.1522 8.79108 13.6894 8.77403C12.9296 8.73992 12.2041 8.59215 11.5243 8.24546C11.1415 8.05222 10.833 7.75099 10.5588 7.42135C10.0617 6.82458 9.58757 6.21076 9.08483 5.62536C8.53067 4.97744 7.85655 4.47161 6.99961 4.28973C6.93106 4.27268 6.8625 4.27837 6.79395 4.24995C6.80537 4.22722 6.93106 4.19312 7.02818 4.19312Z" fill="#614E56"/>
<path d="M13.3867 11.9056C14.2208 12.4058 15.072 12.7695 15.7919 13.3436C16.5745 13.9631 16.9287 14.7701 16.8716 15.7761C16.8088 16.8446 16.3346 17.663 15.4605 18.2655C15.352 18.3394 15.2206 18.3905 15.0378 18.4815C15.0892 18.328 15.1177 18.2371 15.152 18.1518C15.4148 17.5153 15.3862 16.8901 15.0549 16.2933C14.7235 15.7022 14.3522 15.1282 13.9866 14.5542C13.7352 14.1563 13.4896 13.7528 13.3467 13.2981C13.2382 12.9571 13.2439 12.6104 13.2725 12.2637C13.2839 12.1614 13.3353 12.0591 13.3867 11.9056Z" fill="#614E56"/>
<path d="M6.51415 4.67627C6.98262 4.699 7.34824 4.88088 7.62818 5.20484C7.771 5.36966 7.87383 5.58563 7.9481 5.79024C8.04522 6.05736 8.10806 6.33585 8.16519 6.61435C8.23946 6.98946 8.388 7.33615 8.59938 7.65443C8.62794 7.69421 8.65079 7.734 8.67365 7.77378C8.75363 7.94429 8.70792 8.04659 8.52511 8.02954C8.3423 8.01249 8.14805 7.96702 7.98809 7.88177C7.5939 7.67716 7.27969 7.37594 7.05117 6.99514C6.68554 6.38132 6.47988 5.72203 6.48559 5.00591C6.48559 4.89793 6.50273 4.80131 6.51415 4.67627Z" fill="#614E56"/>
<path d="M12.5185 11.5532C12.7298 11.7749 12.8727 12.0363 12.9241 12.3375C13.1126 13.4913 12.4785 14.2813 11.4901 14.5825C11.1588 14.6848 10.8046 14.7417 10.4561 14.7587C9.7077 14.7985 8.96502 14.844 8.24519 15.0599C8.23948 15.0599 8.22805 15.0486 8.2052 15.0315C8.40515 14.8553 8.63367 14.7133 8.87933 14.6507C9.36493 14.52 9.85624 14.4177 10.3418 14.304C10.7018 14.2188 11.0731 14.1676 11.4159 14.0426C12.3128 13.713 12.747 12.8888 12.5413 11.9568C12.5128 11.8317 12.4899 11.7067 12.4613 11.5816C12.4899 11.5646 12.4899 11.5703 12.5185 11.5532Z" fill="#614E56"/>
<path d="M8.74227 9.96754C8.59373 9.62653 8.25667 9.42192 7.85105 9.42761C7.50828 9.43329 7.21692 9.65495 7.08552 10.0016C6.89699 10.5132 7.12551 10.8655 7.71966 10.8599C7.99959 10.8314 8.34236 10.7973 8.61658 10.5359C8.78797 10.3768 8.82796 10.1721 8.74227 9.96754ZM7.91961 10.121C7.71394 10.121 7.53113 10.0016 7.53113 9.86524C7.53113 9.73452 7.71394 9.60379 7.90818 9.59243C8.11956 9.58106 8.34808 9.72315 8.34236 9.87092C8.34236 10.0073 8.14812 10.121 7.91961 10.121Z" fill="#614E56"/>
<path d="M14.7235 5.47196C14.7293 5.94369 15.0435 6.27902 15.3577 6.59729C15.5119 6.75075 15.5462 6.81327 15.6947 6.96672C15.7576 7.03492 15.9575 7.30773 15.9461 7.32478C15.7119 7.14291 15.4776 6.96672 15.2491 6.79622C15.1577 6.72233 15.0149 6.77917 14.9978 6.89284C14.992 6.93262 14.992 6.9724 14.9863 7.01219C14.9635 7.26795 14.8378 7.99544 14.7464 8.09774C14.7464 7.88177 14.7921 7.68284 14.8035 7.4555C14.8435 6.67118 14.5407 6.1483 13.8266 5.85844C13.6438 5.76182 13.4496 5.70498 13.301 5.57426C13.3582 5.57994 13.5752 5.6311 13.6324 5.64815C13.9009 5.7334 14.0151 5.77887 14.2836 5.86412C14.4208 5.90959 14.5407 5.82434 14.5579 5.68793C14.5807 5.50038 14.5921 5.31282 14.6207 5.12526C14.6321 5.04001 14.6664 4.95476 14.695 4.86951C14.7121 4.86951 14.7235 5.27872 14.7235 5.47196Z" fill="#614E56"/>
</svg>
