<svg width="65" height="54" viewBox="0 0 65 54" fill="none" xmlns="http://www.w3.org/2000/svg">
<g clip-path="url(#clip0)">
<path d="M27.808 33.9888V33.8419H27.8929V33.9258V34.0098L27.808 33.9888ZM27.8929 33.9888V33.9049V33.9888ZM27.2349 33.9888V33.9049V33.9888ZM27.2349 33.9888H27.15V33.8419H27.2349V33.9258V33.9888ZM28.4447 33.9468L28.4235 33.7999L28.5721 33.7789L28.5933 33.9258L28.4447 33.9468ZM26.5982 33.9049L26.6194 33.8209L26.5982 33.9049L26.5133 33.8839L26.5345 33.737L26.6194 33.7579L26.5982 33.9049ZM29.0815 33.8419L29.039 33.695L29.1876 33.653L29.23 33.7999L29.0815 33.8419ZM26.0463 33.7999L25.8766 33.7579L25.919 33.611L26.0676 33.653L26.0463 33.7999ZM29.697 33.674L29.6545 33.5481L29.7182 33.5271L29.7606 33.59L29.7819 33.674H29.697ZM25.3672 33.59L25.3884 33.5061L25.3672 33.59L25.3035 33.5691L25.3459 33.4221L25.4096 33.4431L25.3672 33.59ZM30.3125 33.4641L30.2488 33.3172L30.3125 33.2752L30.3761 33.4221L30.3125 33.4641ZM24.7729 33.3592L24.8153 33.2962L24.7729 33.3592L24.7092 33.3172L24.7729 33.1703L24.8366 33.2123L24.7729 33.3592ZM30.8855 33.1913L30.8219 33.0444L30.9704 32.9814L31.0553 33.1073L30.8855 33.1913ZM24.2635 33.0864L24.1149 33.0024L24.1998 32.8765L24.3272 32.9604L24.2635 33.0864ZM31.4374 32.8555L31.3525 32.7086L31.4798 32.6246L31.5647 32.7506L31.4374 32.8555ZM23.7329 32.7506L23.6055 32.6456L23.6904 32.5197L23.8178 32.6036L23.7329 32.7506ZM31.9468 32.4777L31.8619 32.3518L31.9892 32.2469L32.0953 32.3728L31.9468 32.4777ZM23.1598 32.3098L23.2235 32.2469L23.1598 32.3098L23.0961 32.2678L23.2023 32.1419L23.2659 32.1839L23.1598 32.3098ZM32.4349 32.058L32.3288 31.953L32.4349 31.8481L32.541 31.953L32.4349 32.058ZM22.6929 31.8481L22.7566 31.7851L22.6929 31.8481L22.6292 31.7851L22.7353 31.6802L22.799 31.7432L22.6929 31.8481ZM32.8594 31.5753L32.7321 31.4703L32.7745 31.4074L32.9019 31.5123L32.8594 31.5753ZM22.3321 31.4284L22.2896 31.3654L22.3533 31.3234L22.2896 31.3654L22.2472 31.3024L22.3533 31.1975L22.4594 31.3234L22.3321 31.4284ZM33.2415 31.0716L33.1141 30.9876L33.199 30.8617L33.3264 30.9456L33.2839 31.0086L33.2202 30.9666L33.2839 31.0086L33.2415 31.0716ZM21.95 30.9247L21.9076 30.8617L21.9712 30.8197L21.9076 30.8617L21.8651 30.7987L21.9925 30.7148L22.0774 30.8407L21.95 30.9247ZM33.581 30.5259L33.4537 30.442L33.5386 30.316L33.6659 30.379L33.581 30.5259ZM21.6317 30.358L21.568 30.2111L21.7165 30.1481L21.7802 30.295L21.6317 30.358ZM33.857 29.9592L33.7084 29.8963L33.7721 29.7494L33.9206 29.8123L33.857 29.9592ZM21.3345 29.7074L21.4194 29.6864L21.3345 29.7074L21.3133 29.6234L21.4619 29.5605L21.4831 29.6234L21.3345 29.7074ZM34.0904 29.3716L33.9419 29.3296L33.9843 29.1827L34.1329 29.2247L34.0904 29.3716ZM21.1647 29.1827L21.1223 29.0148L21.2708 28.9728L21.3133 29.1198L21.1647 29.1827ZM34.2602 28.742L34.1117 28.721L34.1329 28.637H34.2178L34.3027 28.658L34.2602 28.742ZM20.9949 28.4901L21.0798 28.4691L20.9949 28.4901L20.9737 28.4062L21.1223 28.3852L21.1435 28.4691L20.9949 28.4901ZM34.3664 28.1333L34.2178 28.1124L34.239 27.9654L34.3876 27.9864L34.3664 28.1333ZM20.91 27.8605H20.9949H20.91V27.7766L21.0586 27.7556V27.8395L20.91 27.8605ZM34.4088 27.4827L34.2602 27.4618V27.2939H34.43L34.4088 27.4827ZM20.8888 27.2939V27.126H21.0586V27.2939H20.8888ZM34.239 26.8321V26.7482L34.3876 26.7272H34.3027H34.3876V26.8111L34.239 26.8321ZM21.0798 26.6852L20.9312 26.6642L20.9525 26.4963L21.101 26.5173L21.0798 26.6852ZM34.1753 26.2235L34.1541 26.1396L34.3027 26.0976L34.2178 26.1186L34.3027 26.0976L34.3239 26.1815L34.1753 26.2235ZM21.1859 25.9717H21.101L21.0161 25.9507L21.0374 25.8667L21.1859 25.8877V25.9717ZM34.0268 25.6149L33.9843 25.468L34.1329 25.426L34.1753 25.5939L34.0268 25.6149ZM21.3133 25.468L21.1647 25.426L21.2072 25.2791L21.3557 25.3211L21.3133 25.468ZM33.857 25.0272L33.8357 24.9643L33.9843 24.9013L33.8994 24.9223L33.9843 24.9013L34.0055 24.9643L33.857 25.0272ZM21.5255 24.8803L21.377 24.8174L21.4406 24.6704L21.5892 24.7334L21.5255 24.8803ZM33.6023 24.4396L33.5386 24.2927L33.6872 24.2087L33.7508 24.3556L33.6023 24.4396ZM21.7802 24.3137L21.6529 24.2507L21.7378 24.1038L21.8651 24.1877L21.7802 24.3137ZM33.3051 23.8939L33.2202 23.768L33.3476 23.684L33.39 23.747L33.3264 23.789L33.39 23.747L33.4325 23.81L33.3051 23.8939ZM22.0986 23.768L21.9712 23.684L22.0137 23.6211L22.0774 23.6631L22.0137 23.6211L22.0561 23.5581L22.1835 23.6421L22.0986 23.768ZM32.9443 23.3902L32.8382 23.2643L32.9655 23.1594L33.008 23.2223L32.9443 23.2643L33.008 23.2223L33.0504 23.2853L32.9443 23.3902ZM22.5231 23.2013L22.3957 23.0964L22.4382 23.0334L22.5655 23.1384L22.5231 23.2013ZM32.541 22.9075L32.4774 22.8445L32.5835 22.7396L32.5198 22.8026L32.5835 22.7606L32.6259 22.8236L32.541 22.9075ZM22.8839 22.8026L22.7778 22.6976L22.8839 22.5927L22.99 22.6976L22.8839 22.8026ZM32.0953 22.4668L32.0317 22.4248L32.1378 22.2989L32.0741 22.3618L32.1378 22.2989L32.2015 22.3409L32.0953 22.4668ZM23.3296 22.3618L23.2235 22.2359L23.3508 22.131L23.4357 22.2569L23.3296 22.3618ZM31.6284 22.068L31.501 21.9841L31.5859 21.8581L31.7133 21.9631L31.6284 22.068ZM23.8178 21.9841L23.7329 21.8581L23.8814 21.7742L23.9663 21.9001L23.8178 21.9841ZM31.0978 21.7322L30.9704 21.6483L31.0553 21.5223L31.2039 21.6063L31.0978 21.7322ZM24.3484 21.6483L24.2635 21.5223L24.4121 21.4384L24.4757 21.5853L24.3484 21.6483ZM30.5459 21.4174L30.4823 21.3754L30.5459 21.2285L30.5035 21.2915L30.5459 21.2285L30.6096 21.2705L30.5459 21.4174ZM24.9214 21.3545L24.8578 21.2075L25.0063 21.1446L25.07 21.2915L24.9214 21.3545ZM29.9729 21.1866L29.9092 21.1656L29.9517 21.0187L29.9304 21.1026L29.9517 21.0396L30.0153 21.0606L29.9729 21.1866ZM25.5794 21.1026L25.537 21.0396L25.5157 20.9557L25.5794 20.9347L25.6431 21.0816L25.5794 21.1026ZM29.3574 20.9977L29.2088 20.9557L29.2512 20.8088L29.421 20.8508L29.3574 20.9977ZM26.11 20.9557L26.0676 20.8088L26.2374 20.7668L26.2798 20.9137L26.11 20.9557ZM28.7631 20.8717L28.6782 20.8508L28.6994 20.7038L28.6782 20.7878L28.6994 20.7038L28.7843 20.7248L28.7631 20.8717ZM26.7255 20.8298L26.7043 20.6829L26.8741 20.6619L26.8953 20.8088L26.7255 20.8298ZM28.1263 20.7878H28.0414V20.7038V20.6199H28.1263V20.7878ZM27.4259 20.7668V20.6829V20.5989H27.5108V20.7458L27.4259 20.7668ZM28.0627 20.7038V20.6199V20.7038ZM27.4259 20.7038V20.6199V20.7038Z" fill="#614E56"/>
<path d="M27.532 29.4766V29.3926V29.4766ZM27.532 29.4766H27.4471V29.3296H27.532V29.4136V29.4766ZM28.1051 29.4346L28.0626 29.2877L28.1263 29.2667L28.1475 29.3506L28.1688 29.4346H28.1051ZM26.8953 29.3506L26.9165 29.2667L26.8953 29.3506L26.8104 29.3296L26.8528 29.1827L26.9377 29.2037L26.8953 29.3506ZM28.7206 29.2247L28.6357 29.0988L28.6994 29.0568L28.7843 29.1827L28.7206 29.2247ZM26.3859 29.0778L26.2586 28.9729L26.3647 28.8469L26.492 28.9519L26.3859 29.0778ZM29.23 28.8259L29.1026 28.721L29.2088 28.5951L29.3361 28.7L29.23 28.8259ZM25.8977 28.6161L25.7916 28.4901L25.919 28.4062L26.0039 28.5321L25.8977 28.6161ZM29.612 28.2803L29.4635 28.2173L29.4847 28.1543L29.5696 28.1753L29.6333 28.2173L29.612 28.2803ZM25.5581 27.9864L25.643 27.9655L25.5581 27.9864L25.5369 27.9025L25.6855 27.8395L25.7067 27.9025L25.5581 27.9864ZM29.8243 27.6716L29.6757 27.6507L29.6969 27.5667H29.7818L29.8667 27.5877L29.7818 27.5667L29.8667 27.5877L29.8243 27.6716ZM25.5369 27.3358H25.452V27.2519H25.6006V27.3358H25.5369ZM29.6969 27.042L29.6757 26.9581L29.8243 26.9161L29.7394 26.9371L29.8243 26.9161L29.8455 27L29.6969 27.042ZM25.7067 26.7272L25.6218 26.7062L25.5369 26.6852L25.5581 26.6223L25.7067 26.6642V26.7272ZM29.5271 26.4754L29.4635 26.3284L29.612 26.2445L29.6757 26.3914L29.5271 26.4754ZM25.919 26.2445L25.7916 26.1606L25.8341 26.0976L25.8977 26.1396L25.8341 26.0976L25.8765 26.0346L26.0039 26.1186L25.919 26.2445ZM29.1875 25.9717L29.0814 25.8667L29.1875 25.7618L29.2512 25.8248L29.1875 25.8877L29.2512 25.8457L29.2937 25.9087L29.1875 25.9717ZM26.301 25.8038L26.1949 25.6778L26.3222 25.5729L26.4071 25.6988L26.301 25.8038ZM28.7206 25.5729L28.6569 25.5309L28.7206 25.384L28.6782 25.447L28.7206 25.384L28.7843 25.426L28.7206 25.5729ZM26.8953 25.426L26.8528 25.363L26.8316 25.2791L26.8953 25.2581L26.959 25.384L26.8953 25.426ZM28.1688 25.342L28.0839 25.3211V25.2371L28.1051 25.1532L28.0839 25.2371L28.1051 25.1532L28.19 25.1741L28.1688 25.342ZM27.4896 25.3001L27.4684 25.2161V25.1322H27.5533L27.5745 25.2791L27.4896 25.3001Z" fill="#614E56"/>
<path d="M46.2951 28.5106C45.5733 28.5106 44.8302 28.5106 44.0872 28.5106C44.4481 27.9018 44.809 27.335 45.1699 26.7682C44.809 26.1804 44.4481 25.6136 44.0872 25.0258C44.8302 25.0258 45.5733 25.0258 46.2951 25.0258C46.656 25.6136 47.0169 26.1804 47.3778 26.7682C47.0169 27.335 46.6348 27.9228 46.2951 28.5106Z" fill="#908185"/>
<path d="M52.1958 28.9938C51.8349 29.5816 51.474 30.1484 51.1131 30.7362C51.474 31.324 51.8349 31.9118 52.1958 32.4786C51.474 32.4786 50.7309 32.4786 49.9879 32.4786C49.6482 31.9118 49.2873 31.324 48.9264 30.7362C49.2873 30.1694 49.6482 29.5816 50.0091 28.9729C50.7309 28.9938 51.4527 28.9938 52.1958 28.9938Z" fill="#908185"/>
<path d="M45.0429 30.7362C45.4038 31.303 45.7435 31.8908 46.1044 32.4786C45.3613 32.4786 44.6395 32.4786 43.8965 32.4786C43.5568 31.9118 43.1959 31.324 42.835 30.7362C43.1959 30.1484 43.5355 29.5397 43.9177 28.9729C44.6607 28.9729 45.3826 28.9729 46.1256 28.9729C45.7647 29.5816 45.4038 30.1694 45.0429 30.7362Z" fill="#908185"/>
<path d="M53.0229 28.9938C53.7447 28.9938 54.4878 28.9938 55.2308 28.9938C54.8699 29.5816 54.509 30.1694 54.1481 30.7572C54.509 31.324 54.8487 31.9118 55.2308 32.4996C54.4878 32.4996 53.766 32.4996 53.0229 32.4996C52.6832 31.9328 52.3223 31.345 51.9614 30.7572C52.3011 30.1694 52.662 29.5816 53.0229 28.9938Z" fill="#908185"/>
<path d="M43.2395 24.9852C43.6217 25.552 43.9614 26.1398 44.3223 26.7276C43.9614 27.3364 43.6004 27.9242 43.2395 28.491C42.4965 28.491 41.7747 28.491 41.0316 28.491C41.3925 27.9032 41.7534 27.3154 42.1143 26.7276C41.7534 26.1608 41.4138 25.594 41.0528 25.0272C41.0528 25.0062 41.0528 25.0062 41.0528 25.0062L41.0741 24.9852C41.7959 24.9852 42.4965 24.9852 43.2395 24.9852Z" fill="#908185"/>
<path d="M47.1011 25.0053C47.8441 25.0053 48.5659 25.0053 49.309 25.0053C49.6699 25.5721 50.0096 26.1599 50.3917 26.7477C50.0308 27.3145 49.6699 27.9023 49.309 28.4901C48.5872 28.4901 47.8441 28.4901 47.1011 28.4901C47.462 27.9023 47.8229 27.3145 48.1838 26.7267C47.8229 26.1599 47.4832 25.5931 47.1011 25.0053Z" fill="#908185"/>
<path d="M48.0779 30.7572C48.4176 31.324 48.7785 31.8908 49.1182 32.4576C49.1182 32.4786 49.1182 32.4786 49.0969 32.4786L49.0757 32.4996C48.3751 32.4996 47.6533 32.4996 46.9527 32.4996C46.9103 32.4576 46.8678 32.3946 46.8253 32.3526C46.5069 31.8068 46.1672 31.282 45.8488 30.7572C46.2097 30.1694 46.5706 29.5816 46.9315 29.0148C47.6533 29.0148 48.3751 29.0148 49.1394 29.0148C48.7997 29.6026 48.4388 30.1694 48.0779 30.7572Z" fill="#908185"/>
<path d="M39.036 26.6639C38.9511 26.5379 38.8874 26.454 38.8237 26.37C38.5477 25.9291 38.293 25.4673 38.017 25.0055C38.76 25.0055 39.4818 25.0055 40.2249 25.0055C40.5858 25.5723 40.9467 26.1601 41.3076 26.7479C40.9467 27.3357 40.5858 27.9235 40.2249 28.4903C39.4818 28.4903 38.7812 28.4903 38.0382 28.4903C38.1231 28.3223 38.208 28.1754 38.293 28.0284C38.484 27.7345 38.6751 27.4406 38.8449 27.1257C38.8874 27.0418 38.9511 26.9578 39.0148 26.8528C39.036 26.7898 39.036 26.7269 39.036 26.6639Z" fill="#908185"/>
<path d="M40.1606 18.2273C41.9775 18.2273 43.4504 16.7709 43.4504 14.9743C43.4504 13.1777 41.9775 11.7213 40.1606 11.7213C38.3437 11.7213 36.8708 13.1777 36.8708 14.9743C36.8708 16.7709 38.3437 18.2273 40.1606 18.2273Z" fill="#614E56"/>
<path d="M33.0504 17.178C34.5743 17.178 35.8096 15.9565 35.8096 14.4496C35.8096 12.9428 34.5743 11.7213 33.0504 11.7213C31.5266 11.7213 30.2913 12.9428 30.2913 14.4496C30.2913 15.9565 31.5266 17.178 33.0504 17.178Z" fill="#614E56"/>
<path d="M22.0136 17.178C23.5374 17.178 24.7728 15.9565 24.7728 14.4496C24.7728 12.9428 23.5374 11.7213 22.0136 11.7213C20.4897 11.7213 19.2544 12.9428 19.2544 14.4496C19.2544 15.9565 20.4897 17.178 22.0136 17.178Z" fill="#614E56"/>
<path d="M14.7973 24.7334C16.3211 24.7334 17.5565 23.5119 17.5565 22.0051C17.5565 20.4982 16.3211 19.2767 14.7973 19.2767C13.2734 19.2767 12.0381 20.4982 12.0381 22.0051C12.0381 23.5119 13.2734 24.7334 14.7973 24.7334Z" fill="#614E56"/>
<path d="M14.7973 35.4369C16.3211 35.4369 17.5565 34.2154 17.5565 32.7086C17.5565 31.2017 16.3211 29.9802 14.7973 29.9802C13.2734 29.9802 12.0381 31.2017 12.0381 32.7086C12.0381 34.2154 13.2734 35.4369 14.7973 35.4369Z" fill="#614E56"/>
<path d="M33.0504 43.2022C34.5743 43.2022 35.8096 41.9807 35.8096 40.4739C35.8096 38.9671 34.5743 37.7455 33.0504 37.7455C31.5266 37.7455 30.2913 38.9671 30.2913 40.4739C30.2913 41.9807 31.5266 43.2022 33.0504 43.2022Z" fill="#614E56"/>
<path d="M22.0136 43.2022C23.5374 43.2022 24.7728 41.9807 24.7728 40.4739C24.7728 38.9671 23.5374 37.7455 22.0136 37.7455C20.4897 37.7455 19.2544 38.9671 19.2544 40.4739C19.2544 41.9807 20.4897 43.2022 22.0136 43.2022Z" fill="#614E56"/>
<path d="M27.6382 12.9805C29.4551 12.9805 30.928 11.5241 30.928 9.72749C30.928 7.93089 29.4551 6.47446 27.6382 6.47446C25.8213 6.47446 24.3484 7.93089 24.3484 9.72749C24.3484 11.5241 25.8213 12.9805 27.6382 12.9805Z" fill="#614E56"/>
<path d="M15.1157 18.2273C16.9326 18.2273 18.4055 16.7709 18.4055 14.9743C18.4055 13.1777 16.9326 11.7213 15.1157 11.7213C13.2988 11.7213 11.8259 13.1777 11.8259 14.9743C11.8259 16.7709 13.2988 18.2273 15.1157 18.2273Z" fill="#614E56"/>
<path d="M40.1606 42.7825C41.9775 42.7825 43.4504 41.326 43.4504 39.5294C43.4504 37.7328 41.9775 36.2764 40.1606 36.2764C38.3437 36.2764 36.8708 37.7328 36.8708 39.5294C36.8708 41.326 38.3437 42.7825 40.1606 42.7825Z" fill="#614E56"/>
<path d="M27.6382 48.0293C29.4551 48.0293 30.928 46.5729 30.928 44.7763C30.928 42.9797 29.4551 41.5232 27.6382 41.5232C25.8213 41.5232 24.3484 42.9797 24.3484 44.7763C24.3484 46.5729 25.8213 48.0293 27.6382 48.0293Z" fill="#614E56"/>
<path d="M15.1157 42.7825C16.9326 42.7825 18.4055 41.326 18.4055 39.5294C18.4055 37.7328 16.9326 36.2764 15.1157 36.2764C13.2988 36.2764 11.8259 37.7328 11.8259 39.5294C11.8259 41.326 13.2988 42.7825 15.1157 42.7825Z" fill="#614E56"/>
<path d="M10.0219 30.4C11.8388 30.4 13.3117 28.9435 13.3117 27.1469C13.3117 25.3503 11.8388 23.8939 10.0219 23.8939C8.20495 23.8939 6.73206 25.3503 6.73206 27.1469C6.73206 28.9435 8.20495 30.4 10.0219 30.4Z" fill="#614E56"/>
<path d="M34.8549 21.796C35.7343 21.796 36.4472 21.0911 36.4472 20.2215C36.4472 19.352 35.7343 18.6471 34.8549 18.6471C33.9756 18.6471 33.2627 19.352 33.2627 20.2215C33.2627 21.0911 33.9756 21.796 34.8549 21.796Z" fill="#614E56"/>
<path d="M27.6385 18.8578C28.5179 18.8578 29.2308 18.1529 29.2308 17.2833C29.2308 16.4138 28.5179 15.7089 27.6385 15.7089C26.7591 15.7089 26.0463 16.4138 26.0463 17.2833C26.0463 18.1529 26.7591 18.8578 27.6385 18.8578Z" fill="#614E56"/>
<path d="M20.6345 21.796C21.5139 21.796 22.2267 21.0911 22.2267 20.2215C22.2267 19.352 21.5139 18.6471 20.6345 18.6471C19.7551 18.6471 19.0422 19.352 19.0422 20.2215C19.0422 21.0911 19.7551 21.796 20.6345 21.796Z" fill="#614E56"/>
<path d="M17.6631 28.7218C18.5424 28.7218 19.2553 28.0169 19.2553 27.1473C19.2553 26.2778 18.5424 25.5729 17.6631 25.5729C16.7837 25.5729 16.0708 26.2778 16.0708 27.1473C16.0708 28.0169 16.7837 28.7218 17.6631 28.7218Z" fill="#614E56"/>
<path d="M6.52016 37.1167C7.34091 37.1167 8.00626 36.4587 8.00626 35.6472C8.00626 34.8356 7.34091 34.1777 6.52016 34.1777C5.69941 34.1777 5.03406 34.8356 5.03406 35.6472C5.03406 36.4587 5.69941 37.1167 6.52016 37.1167Z" fill="#614E56"/>
<path d="M18.4059 49.4992C19.2267 49.4992 19.892 48.8413 19.892 48.0297C19.892 47.2181 19.2267 46.5602 18.4059 46.5602C17.5852 46.5602 16.9198 47.2181 16.9198 48.0297C16.9198 48.8413 17.5852 49.4992 18.4059 49.4992Z" fill="#614E56"/>
<path d="M36.2344 49.4992C37.0551 49.4992 37.7205 48.8413 37.7205 48.0297C37.7205 47.2181 37.0551 46.5602 36.2344 46.5602C35.4136 46.5602 34.7483 47.2181 34.7483 48.0297C34.7483 48.8413 35.4136 49.4992 36.2344 49.4992Z" fill="#614E56"/>
<path d="M18.4059 7.73445C19.2267 7.73445 19.892 7.07653 19.892 6.26495C19.892 5.45338 19.2267 4.79546 18.4059 4.79546C17.5852 4.79546 16.9198 5.45338 16.9198 6.26495C16.9198 7.07653 17.5852 7.73445 18.4059 7.73445Z" fill="#614E56"/>
<path d="M45.4672 11.5123C46.4638 11.5123 47.2717 10.7134 47.2717 9.72793C47.2717 8.74244 46.4638 7.94354 45.4672 7.94354C44.4705 7.94354 43.6626 8.74244 43.6626 9.72793C43.6626 10.7134 44.4705 11.5123 45.4672 11.5123Z" fill="#614E56"/>
<path d="M45.4672 46.771C46.4638 46.771 47.2717 45.9721 47.2717 44.9866C47.2717 44.0011 46.4638 43.2022 45.4672 43.2022C44.4705 43.2022 43.6626 44.0011 43.6626 44.9866C43.6626 45.9721 44.4705 46.771 45.4672 46.771Z" fill="#614E56"/>
<path d="M10.0223 11.5123C11.0189 11.5123 11.8269 10.7134 11.8269 9.72793C11.8269 8.74244 11.0189 7.94354 10.0223 7.94354C9.0257 7.94354 8.21777 8.74244 8.21777 9.72793C8.21777 10.7134 9.0257 11.5123 10.0223 11.5123Z" fill="#614E56"/>
<path d="M2.38145 28.9318C3.37808 28.9318 4.18601 28.1329 4.18601 27.1474C4.18601 26.1619 3.37808 25.363 2.38145 25.363C1.38483 25.363 0.576904 26.1619 0.576904 27.1474C0.576904 28.1329 1.38483 28.9318 2.38145 28.9318Z" fill="#614E56"/>
<path d="M27.6387 4.16676C28.6353 4.16676 29.4432 3.36787 29.4432 2.38238C29.4432 1.39689 28.6353 0.598 27.6387 0.598C26.642 0.598 25.8341 1.39689 25.8341 2.38238C25.8341 3.36787 26.642 4.16676 27.6387 4.16676Z" fill="#614E56"/>
<path d="M27.6387 53.9067C28.6353 53.9067 29.4432 53.1078 29.4432 52.1223C29.4432 51.1368 28.6353 50.3379 27.6387 50.3379C26.642 50.3379 25.8341 51.1368 25.8341 52.1223C25.8341 53.1078 26.642 53.9067 27.6387 53.9067Z" fill="#614E56"/>
<path d="M10.0223 46.771C11.0189 46.771 11.8269 45.9721 11.8269 44.9866C11.8269 44.0011 11.0189 43.2022 10.0223 43.2022C9.0257 43.2022 8.21777 44.0011 8.21777 44.9866C8.21777 45.9721 9.0257 46.771 10.0223 46.771Z" fill="#614E56"/>
<path d="M36.2344 7.73445C37.0551 7.73445 37.7205 7.07653 37.7205 6.26495C37.7205 5.45338 37.0551 4.79546 36.2344 4.79546C35.4136 4.79546 34.7483 5.45338 34.7483 6.26495C34.7483 7.07653 35.4136 7.73445 36.2344 7.73445Z" fill="#614E56"/>
<path d="M6.52016 19.6972C7.34091 19.6972 8.00626 19.0393 8.00626 18.2277C8.00626 17.4162 7.34091 16.7582 6.52016 16.7582C5.69941 16.7582 5.03406 17.4162 5.03406 18.2277C5.03406 19.0393 5.69941 19.6972 6.52016 19.6972Z" fill="#614E56"/>
<path d="M34.8549 35.8575C35.7343 35.8575 36.4472 35.1526 36.4472 34.283C36.4472 33.4135 35.7343 32.7086 34.8549 32.7086C33.9756 32.7086 33.2627 33.4135 33.2627 34.283C33.2627 35.1526 33.9756 35.8575 34.8549 35.8575Z" fill="#614E56"/>
<path d="M27.6385 38.7957C28.5179 38.7957 29.2308 38.0908 29.2308 37.2212C29.2308 36.3517 28.5179 35.6468 27.6385 35.6468C26.7591 35.6468 26.0463 36.3517 26.0463 37.2212C26.0463 38.0908 26.7591 38.7957 27.6385 38.7957Z" fill="#614E56"/>
<path d="M20.6345 35.8575C21.5139 35.8575 22.2267 35.1526 22.2267 34.283C22.2267 33.4135 21.5139 32.7086 20.6345 32.7086C19.7551 32.7086 19.0422 33.4135 19.0422 34.283C19.0422 35.1526 19.7551 35.8575 20.6345 35.8575Z" fill="#614E56"/>
<path d="M27.6383 27.8818C27.9314 27.8818 28.169 27.6468 28.169 27.357C28.169 27.0671 27.9314 26.8322 27.6383 26.8322C27.3452 26.8322 27.1075 27.0671 27.1075 27.357C27.1075 27.6468 27.3452 27.8818 27.6383 27.8818Z" fill="#614E56"/>
<path d="M27.7443 27.3568H33.6871L37.932 23.1594H51.3035L57.2463 29.0358H64.0382" stroke="#A1A1A1" stroke-width="0.1" stroke-miterlimit="10"/>
</g>
<defs>
<clipPath id="clip0">
<rect width="63.4613" height="53.3078" fill="white" transform="translate(0.576904 0.598)"/>
</clipPath>
</defs>
</svg>
