<?xml version="1.0" standalone="no"?>
<!DOCTYPE svg PUBLIC "-//W3C//DTD SVG 20010904//EN"
 "http://www.w3.org/TR/2001/REC-SVG-20010904/DTD/svg10.dtd">
<svg version="1.0"
    xmlns="http://www.w3.org/2000/svg" width="1885.000000pt" height="1885.000000pt" viewBox="0 0 1885.000000 1885.000000" preserveAspectRatio="xMidYMid meet">
    <g transform="translate(0.000000,1885.000000) scale(0.100000,-0.100000)" fill="#fff" stroke="none">
        <path d="M9130 18843 c-786 -61 -1499 -484 -1936 -1148 -210 -319 -334 -652
-395 -1060 -21 -138 -18 -539 5 -690 120 -794 592 -1476 1290 -1864 729 -404
1616 -424 2358 -51 780 393 1303 1140 1398 2000 17 149 14 451 -5 595 -114
859 -634 1584 -1409 1965 -288 141 -566 219 -891 250 -103 9 -312 11 -415 3z
m420 -1208 c269 -44 522 -176 725 -380 247 -246 379 -552 392 -905 8 -222 -32
-419 -126 -616 -183 -384 -510 -645 -935 -746 -124 -30 -417 -32 -546 -5 -261
56 -481 172 -670 354 -269 257 -413 595 -413 968 -1 225 44 416 142 608 195
384 545 643 976 722 99 19 340 18 455 0z"/>
        <path d="M3154 15449 c-478 -43 -921 -214 -1314 -507 -148 -111 -381 -344
-492 -492 -272 -364 -437 -768 -499 -1220 -18 -124 -18 -506 0 -630 39 -285
122 -558 241 -798 139 -278 274 -467 490 -682 394 -394 872 -636 1425 -722
180 -28 539 -30 708 -5 574 87 1056 327 1458 727 395 393 648 905 725 1470 23
169 23 481 0 650 -116 852 -638 1581 -1400 1954 -83 41 -202 93 -265 116 -331
120 -724 171 -1077 139z m548 -1227 c450 -117 804 -446 951 -885 51 -149 62
-228 62 -422 0 -194 -11 -272 -61 -422 -146 -438 -512 -775 -965 -889 -143
-36 -380 -44 -530 -19 -567 94 -1016 538 -1114 1100 -20 118 -20 342 0 460 86
492 450 907 925 1055 158 50 235 60 435 56 162 -3 192 -7 297 -34z"/>
        <path d="M15242 15450 c-209 -21 -468 -78 -647 -144 -229 -85 -532 -256 -710
-400 -520 -421 -857 -1016 -939 -1656 -41 -325 -25 -633 50 -938 228 -931 977
-1668 1907 -1876 214 -48 316 -59 562 -59 188 -1 256 3 370 21 552 86 1032
329 1425 722 217 217 353 406 491 685 121 247 199 503 241 800 16 117 16 503
0 620 -41 290 -118 548 -235 789 -135 278 -277 477 -496 697 -218 217 -409
353 -686 489 -245 121 -470 191 -738 231 -153 23 -456 32 -595 19z m449 -1206
c486 -81 896 -433 1053 -904 49 -146 67 -259 67 -425 0 -166 -18 -279 -67
-425 -159 -475 -567 -823 -1063 -905 -159 -27 -388 -17 -541 23 -607 158
-1020 687 -1020 1307 0 363 137 692 395 951 199 200 443 327 725 379 105 19
336 19 451 -1z"/>
        <path d="M7988 12400 c-120 -21 -256 -77 -350 -146 -85 -63 -183 -178 -231
-272 -71 -136 -91 -221 -91 -377 0 -156 20 -240 91 -379 39 -74 64 -108 143
-186 129 -128 249 -193 418 -226 369 -71 751 137 893 486 101 248 70 537 -80
759 -48 72 -160 179 -236 226 -164 103 -374 146 -557 115z"/>
        <path d="M10400 12396 c-323 -69 -569 -313 -634 -629 -83 -400 151 -799 544
-929 88 -29 106 -31 235 -32 158 -1 222 12 342 68 223 106 378 288 445 523 32
111 32 305 0 416 -38 134 -103 247 -201 350 -99 104 -219 177 -362 217 -96 27
-278 35 -369 16z"/>
        <path d="M6830 10345 c-300 -67 -534 -289 -616 -586 -14 -48 -18 -100 -18
-209 0 -137 2 -150 32 -240 47 -137 100 -220 206 -325 104 -103 214 -167 351
-207 105 -29 305 -32 405 -4 463 127 715 594 564 1045 -39 116 -96 205 -198
306 -107 106 -170 146 -308 193 -91 31 -116 35 -227 38 -86 3 -147 -1 -191
-11z"/>
        <path d="M11699 10346 c-98 -21 -194 -62 -286 -122 -333 -220 -452 -658 -277
-1019 154 -316 501 -499 844 -445 261 42 480 201 596 435 60 121 84 224 85
352 0 56 -3 119 -7 140 -52 305 -278 558 -574 643 -96 28 -286 35 -381 16z"/>
        <path d="M3195 8783 c-605 -49 -1142 -287 -1571 -696 -423 -404 -681 -904
-771 -1494 -21 -137 -24 -527 -5 -658 43 -299 120 -553 241 -800 90 -182 139
-262 260 -425 94 -126 301 -340 425 -440 199 -161 493 -328 730 -415 316 -116
704 -171 1034 -147 244 19 409 51 632 124 765 250 1375 866 1625 1638 83 259
118 484 118 770 1 303 -34 524 -128 806 -123 373 -325 703 -605 985 -434 438
-975 693 -1590 748 -106 10 -300 12 -395 4z m406 -1209 c360 -60 688 -274 893
-582 99 -149 162 -297 201 -475 25 -112 31 -352 11 -474 -80 -510 -437 -927
-929 -1084 -137 -44 -215 -54 -412 -54 -172 0 -200 3 -295 27 -140 35 -248 78
-356 139 -354 203 -600 550 -669 944 -20 117 -21 343 0 458 74 419 346 786
725 977 137 68 258 106 430 133 69 11 314 6 401 -9z"/>
        <path d="M15235 8780 c-650 -66 -1236 -362 -1661 -837 -831 -932 -870 -2308
-93 -3283 302 -380 730 -678 1189 -828 224 -74 391 -106 636 -124 261 -19 521
6 800 77 459 117 908 387 1231 741 174 191 291 362 408 599 128 258 204 507
247 810 16 117 16 503 0 620 -58 405 -199 783 -409 1097 -406 607 -1044 1008
-1768 1114 -124 18 -459 26 -580 14z m510 -1214 c260 -59 480 -179 668 -364
199 -197 334 -454 382 -729 20 -116 20 -336 0 -455 -68 -396 -314 -743 -669
-947 -108 -61 -216 -104 -356 -139 -95 -24 -123 -27 -295 -27 -197 0 -275 10
-412 54 -492 157 -849 574 -929 1084 -20 123 -14 362 11 477 58 265 181 488
374 680 202 200 439 324 716 375 106 19 411 14 510 -9z"/>
        <path d="M7974 8179 c-28 -5 -90 -23 -138 -40 -218 -79 -407 -272 -480 -490
-151 -451 101 -918 564 -1045 100 -28 300 -25 404 4 140 40 249 104 352 207
156 154 231 319 241 529 20 402 -248 749 -640 830 -81 17 -219 19 -303 5z"/>
        <path d="M10598 8180 c-70 -12 -144 -38 -223 -77 -90 -45 -147 -87 -216 -160
-99 -104 -153 -198 -195 -340 -35 -118 -38 -296 -5 -418 107 -407 510 -665
921 -591 293 53 529 261 627 551 24 73 27 94 27 235 1 136 -2 164 -22 230 -85
271 -289 474 -552 550 -84 24 -281 35 -362 20z"/>
        <path d="M9116 5080 c-327 -28 -637 -116 -931 -265 -271 -137 -492 -300 -698
-514 -307 -321 -527 -718 -631 -1141 -50 -205 -66 -327 -73 -550 -21 -721 251
-1385 774 -1890 465 -450 1034 -692 1683 -716 821 -31 1624 356 2118 1020 302
405 472 870 501 1370 79 1341 -902 2514 -2239 2676 -126 15 -380 20 -504 10z
m425 -1206 c582 -99 1025 -551 1115 -1139 19 -122 14 -332 -11 -450 -87 -417
-353 -763 -731 -953 -93 -47 -264 -101 -377 -118 -139 -23 -397 -15 -517 15
-407 102 -734 363 -910 726 -152 312 -177 676 -69 1008 151 465 561 822 1044
908 129 23 332 24 456 3z"/>
    </g>
</svg>
