<svg width="10" height="22" viewBox="0 0 10 22" fill="none" xmlns="http://www.w3.org/2000/svg">
<g style="mix-blend-mode:screen">
<path d="M6.52974 3.36377C7.4261 3.59332 8.16146 4.05811 8.79261 4.72715C8.97153 4.91678 8.99269 5.25823 8.84144 5.48309L8.07116 6.62827C7.92792 6.84123 7.67949 6.87723 7.50037 6.71329C6.80708 6.07862 6.08851 5.77592 5.26342 5.77592C4.31562 5.77592 3.71888 6.28642 3.71888 7.19634C3.71888 8.12843 4.15767 8.50576 5.96555 9.21599C8.17706 10.1038 9.44086 11.2801 9.44086 13.9878C9.44086 16.1351 8.36698 17.7832 6.50399 18.4018C6.32015 18.4628 6.19366 18.6762 6.19366 18.9166V21.4652C6.19366 21.7606 6.00428 22 5.7707 22H4.59816C4.36454 22 4.1752 21.7605 4.1752 21.4652V19.1064C4.1752 18.8405 4.02085 18.6122 3.81238 18.5776C2.48915 18.3579 1.46083 17.7241 0.690311 16.9107C0.506811 16.717 0.354637 16.5566 0.515509 16.3331L1.56829 14.8703C1.80017 14.5482 1.91212 14.7085 2.0857 14.8783C2.83964 15.6155 3.69564 16.0298 4.70178 16.0298C5.84263 16.0298 6.52723 15.364 6.52723 14.2541C6.52723 13.1889 6.10587 12.7005 4.42094 12.0348C1.78815 11.0138 0.857842 9.63778 0.857842 7.46266C0.857842 5.32745 2.06015 3.82402 3.84625 3.3435C4.03916 3.2916 4.1752 3.35174 4.1752 3.10231V0.239506C4.1752 -0.0558949 4.36458 0.0052389 4.59816 0.0052389H5.7707C6.00432 0.0052389 6.19366 0.244705 6.19366 0.540063V2.84184C6.19366 3.09454 6.33387 3.31364 6.52974 3.36377Z" fill="#235A61"/>
</g>
</svg>
