<svg width="14" height="14" viewBox="0 0 14 14" fill="none" xmlns="http://www.w3.org/2000/svg">
<path fillRule="evenodd" clipRule="evenodd" d="M3.00001 13.6667H11C12.5333 13.6667 13.6667 12.4667 13.6667 11V3.00004C13.6667 1.53337 12.4667 0.333374 11 0.333374H3.00001C1.53334 0.333374 0.333344 1.53337 0.333344 3.00004V11C0.333344 12.4667 1.53334 13.6667 3.00001 13.6667ZM4.00001 7.66667C4.00001 7.48257 3.85078 7.33333 3.66668 7.33333C3.48258 7.33333 3.33335 7.48257 3.33335 7.66667V10.3333C3.33335 10.5174 3.48258 10.6667 3.66668 10.6667C3.85078 10.6667 4.00001 10.5174 4.00001 10.3333V7.66667ZM7.00001 3.33333C7.18411 3.33333 7.33335 3.48257 7.33335 3.66667V10.3333C7.33335 10.5174 7.18411 10.6667 7.00001 10.6667C6.81592 10.6667 6.66668 10.5174 6.66668 10.3333V3.66667C6.66668 3.48257 6.81592 3.33333 7.00001 3.33333ZM10.6667 5.66667C10.6667 5.48257 10.5174 5.33333 10.3333 5.33333C10.1493 5.33333 10 5.48257 10 5.66667V10.3333C10 10.5174 10.1493 10.6667 10.3333 10.6667C10.5174 10.6667 10.6667 10.5174 10.6667 10.3333V5.66667Z" fill="url(#paint0_linear)"/>
<defs>
<linearGradient id="paint0_linear" x1="13.6667" y1="7.00004" x2="0.333344" y2="7.00004" gradientUnits="userSpaceOnUse">
<stop stop-color="#5394AA"/>
<stop offset="1" stop-color="#10CF81"/>
</linearGradient>
</defs>
</svg>
