<svg width="269" height="50" viewBox="0 0 269 50" fill="none" xmlns="http://www.w3.org/2000/svg">
<path d="M67.0312 19.7637V32H65.1758V19.7637H60.4492V18.2402H71.7578V19.7637H67.0312ZM74.043 32.1953C72.9818 32.1953 72.1842 31.9154 71.6504 31.3555C71.1165 30.7956 70.8496 30.0273 70.8496 29.0508C70.8496 27.957 71.2077 27.1172 71.9238 26.5312C72.6465 25.9453 73.8086 25.6328 75.4102 25.5938L77.7832 25.5547V24.9785C77.7832 24.1191 77.6009 23.5039 77.2363 23.1328C76.8717 22.7617 76.2988 22.5762 75.5176 22.5762C74.7298 22.5762 74.1569 22.7096 73.7988 22.9766C73.4408 23.2435 73.2259 23.6699 73.1543 24.2559L71.3184 24.0898C71.6178 22.1888 73.0306 21.2383 75.5566 21.2383C76.8848 21.2383 77.8841 21.5443 78.5547 22.1562C79.2253 22.7617 79.5605 23.6406 79.5605 24.793V29.3438C79.5605 29.8646 79.6289 30.2585 79.7656 30.5254C79.9023 30.7858 80.1628 30.916 80.5469 30.916C80.7161 30.916 80.9082 30.8932 81.123 30.8477V31.9414C80.6803 32.0456 80.2279 32.0977 79.7656 32.0977C79.1146 32.0977 78.6393 31.9284 78.3398 31.5898C78.0469 31.2448 77.8809 30.7077 77.8418 29.9785H77.7832C77.334 30.7858 76.8099 31.3587 76.2109 31.6973C75.6185 32.0293 74.8958 32.1953 74.043 32.1953ZM74.4434 30.877C75.0879 30.877 75.6608 30.7305 76.1621 30.4375C76.6634 30.1445 77.0573 29.7441 77.3438 29.2363C77.6367 28.722 77.7832 28.1947 77.7832 27.6543V26.7852L75.8594 26.8242C75.0326 26.8372 74.4043 26.9219 73.9746 27.0781C73.5514 27.2344 73.2259 27.4753 72.998 27.8008C72.7702 28.1263 72.6562 28.5527 72.6562 29.0801C72.6562 29.653 72.8092 30.0957 73.1152 30.4082C73.4277 30.7207 73.8704 30.877 74.4434 30.877ZM83.8184 26.668C83.8184 28.0742 84.0397 29.1159 84.4824 29.793C84.9251 30.4701 85.5924 30.8086 86.4844 30.8086C87.1094 30.8086 87.6302 30.6393 88.0469 30.3008C88.4701 29.9622 88.7305 29.4414 88.8281 28.7383L90.6055 28.8555C90.4688 29.8711 90.0358 30.6816 89.3066 31.2871C88.5775 31.8926 87.653 32.1953 86.5332 32.1953C85.0553 32.1953 83.9258 31.7298 83.1445 30.7988C82.3698 29.8613 81.9824 28.4974 81.9824 26.707C81.9824 24.9297 82.373 23.5755 83.1543 22.6445C83.9355 21.707 85.0553 21.2383 86.5137 21.2383C87.5944 21.2383 88.4896 21.5182 89.1992 22.0781C89.9154 22.638 90.3646 23.4095 90.5469 24.3926L88.7402 24.5293C88.6491 23.9434 88.418 23.4779 88.0469 23.1328C87.6758 22.7878 87.1484 22.6152 86.4648 22.6152C85.5339 22.6152 84.86 22.9245 84.4434 23.543C84.0267 24.1615 83.8184 25.2031 83.8184 26.668ZM101.416 26.707C101.416 28.556 101.009 29.9329 100.195 30.8379C99.3815 31.7428 98.1999 32.1953 96.6504 32.1953C95.1074 32.1953 93.9421 31.7266 93.1543 30.7891C92.3665 29.8451 91.9727 28.4844 91.9727 26.707C91.9727 23.0612 93.5514 21.2383 96.709 21.2383C98.3236 21.2383 99.5117 21.6842 100.273 22.5762C101.035 23.4616 101.416 24.8385 101.416 26.707ZM99.5703 26.707C99.5703 25.2487 99.3522 24.1908 98.916 23.5332C98.4863 22.8691 97.7604 22.5371 96.7383 22.5371C95.7096 22.5371 94.9642 22.8757 94.502 23.5527C94.0462 24.2233 93.8184 25.2747 93.8184 26.707C93.8184 28.1003 94.043 29.1484 94.4922 29.8516C94.9479 30.5482 95.6608 30.8965 96.6309 30.8965C97.6855 30.8965 98.4375 30.5579 98.8867 29.8809C99.3424 29.2038 99.5703 28.1458 99.5703 26.707ZM114.688 28.2012C114.688 29.4707 114.189 30.4538 113.193 31.1504C112.204 31.847 110.807 32.1953 109.004 32.1953C105.651 32.1953 103.708 31.0299 103.174 28.6992L104.98 28.3379C105.189 29.1647 105.632 29.7734 106.309 30.1641C106.986 30.5482 107.907 30.7402 109.072 30.7402C110.277 30.7402 111.204 30.5352 111.855 30.125C112.513 29.7083 112.842 29.0996 112.842 28.2988C112.842 27.8496 112.738 27.485 112.529 27.2051C112.327 26.9251 112.041 26.694 111.67 26.5117C111.299 26.3294 110.856 26.1764 110.342 26.0527C109.827 25.929 109.258 25.7956 108.633 25.6523C107.546 25.4115 106.719 25.1706 106.152 24.9297C105.592 24.6888 105.15 24.4219 104.824 24.1289C104.499 23.8294 104.248 23.4811 104.072 23.084C103.903 22.6868 103.818 22.2311 103.818 21.7168C103.818 20.5384 104.268 19.6302 105.166 18.9922C106.071 18.3542 107.363 18.0352 109.043 18.0352C110.605 18.0352 111.8 18.276 112.627 18.7578C113.454 19.2331 114.033 20.0469 114.365 21.1992L112.529 21.5215C112.327 20.7923 111.943 20.265 111.377 19.9395C110.811 19.6074 110.026 19.4414 109.023 19.4414C107.923 19.4414 107.083 19.6237 106.504 19.9883C105.924 20.3529 105.635 20.8965 105.635 21.6191C105.635 22.0423 105.745 22.3939 105.967 22.6738C106.195 22.9473 106.52 23.1816 106.943 23.377C107.367 23.5658 108.21 23.8001 109.473 24.0801C109.896 24.1777 110.316 24.2786 110.732 24.3828C111.156 24.4805 111.559 24.6009 111.943 24.7441C112.327 24.8809 112.686 25.0436 113.018 25.2324C113.356 25.4212 113.649 25.6523 113.896 25.9258C114.144 26.1992 114.336 26.5215 114.473 26.8926C114.616 27.2637 114.688 27.6999 114.688 28.2012ZM127.07 32H125.029L123.184 24.5293L122.832 22.8789C122.773 23.1719 122.682 23.5951 122.559 24.1484C122.435 24.6953 121.771 27.3125 120.566 32H118.535L115.576 21.4336H117.314L119.102 28.6113C119.147 28.7676 119.287 29.4121 119.521 30.5449L119.688 29.8223L121.895 21.4336H123.779L125.625 28.6895L126.074 30.5449L126.377 29.1875L128.379 21.4336H130.098L127.07 32ZM134.102 32.1953C133.04 32.1953 132.243 31.9154 131.709 31.3555C131.175 30.7956 130.908 30.0273 130.908 29.0508C130.908 27.957 131.266 27.1172 131.982 26.5312C132.705 25.9453 133.867 25.6328 135.469 25.5938L137.842 25.5547V24.9785C137.842 24.1191 137.66 23.5039 137.295 23.1328C136.93 22.7617 136.357 22.5762 135.576 22.5762C134.788 22.5762 134.215 22.7096 133.857 22.9766C133.499 23.2435 133.285 23.6699 133.213 24.2559L131.377 24.0898C131.676 22.1888 133.089 21.2383 135.615 21.2383C136.943 21.2383 137.943 21.5443 138.613 22.1562C139.284 22.7617 139.619 23.6406 139.619 24.793V29.3438C139.619 29.8646 139.688 30.2585 139.824 30.5254C139.961 30.7858 140.221 30.916 140.605 30.916C140.775 30.916 140.967 30.8932 141.182 30.8477V31.9414C140.739 32.0456 140.286 32.0977 139.824 32.0977C139.173 32.0977 138.698 31.9284 138.398 31.5898C138.105 31.2448 137.939 30.7077 137.9 29.9785H137.842C137.393 30.7858 136.868 31.3587 136.27 31.6973C135.677 32.0293 134.954 32.1953 134.102 32.1953ZM134.502 30.877C135.146 30.877 135.719 30.7305 136.221 30.4375C136.722 30.1445 137.116 29.7441 137.402 29.2363C137.695 28.722 137.842 28.1947 137.842 27.6543V26.7852L135.918 26.8242C135.091 26.8372 134.463 26.9219 134.033 27.0781C133.61 27.2344 133.285 27.4753 133.057 27.8008C132.829 28.1263 132.715 28.5527 132.715 29.0801C132.715 29.653 132.868 30.0957 133.174 30.4082C133.486 30.7207 133.929 30.877 134.502 30.877ZM151.475 26.668C151.475 30.3529 150.179 32.1953 147.588 32.1953C145.96 32.1953 144.867 31.5833 144.307 30.3594H144.258C144.284 30.4115 144.297 30.9648 144.297 32.0195V36.1504H142.539V23.5918C142.539 22.5046 142.52 21.7852 142.48 21.4336H144.18C144.186 21.4596 144.196 21.554 144.209 21.7168C144.222 21.873 144.235 22.1172 144.248 22.4492C144.268 22.7812 144.277 23.0091 144.277 23.1328H144.316C144.629 22.4818 145.042 22.0065 145.557 21.707C146.071 21.401 146.748 21.248 147.588 21.248C148.89 21.248 149.863 21.6842 150.508 22.5566C151.152 23.429 151.475 24.7995 151.475 26.668ZM149.629 26.707C149.629 25.2357 149.43 24.1842 149.033 23.5527C148.636 22.9212 148.005 22.6055 147.139 22.6055C146.442 22.6055 145.895 22.752 145.498 23.0449C145.107 23.3379 144.808 23.7969 144.6 24.4219C144.398 25.0404 144.297 25.8477 144.297 26.8438C144.297 28.2305 144.518 29.2526 144.961 29.9102C145.404 30.5677 146.123 30.8965 147.119 30.8965C147.992 30.8965 148.626 30.5775 149.023 29.9395C149.427 29.2949 149.629 28.2174 149.629 26.707Z" fill="#614E56"/>
<path d="M168.704 17.512C167.488 17.912 166.544 18.576 165.872 19.504C165.216 20.416 164.888 21.552 164.888 22.912C164.888 23.52 164.944 23.936 165.056 24.16C165.168 24.384 165.224 24.52 165.224 24.568C163.512 24.568 162.656 23.84 162.656 22.384C162.656 21.392 163.032 20.4 163.784 19.408C164.552 18.4 165.528 17.584 166.712 16.96C167.912 16.32 169.104 16 170.288 16C170.88 16 171.488 16.112 172.112 16.336L171.56 28.984L176.84 16.336H180.296L177.776 34H174.32L175.856 23.224L171.344 34H168.056L168.536 23.176L164.528 34H162.608L168.704 17.512ZM182.771 34.144C181.859 34.144 181.099 33.832 180.491 33.208C179.883 32.584 179.579 31.608 179.579 30.28C179.579 29.096 179.811 27.856 180.275 26.56C180.755 25.248 181.459 24.144 182.387 23.248C183.331 22.336 184.451 21.88 185.747 21.88C186.403 21.88 186.891 21.992 187.211 22.216C187.531 22.44 187.691 22.736 187.691 23.104V23.272L187.955 22H191.411L189.683 30.16C189.619 30.4 189.587 30.656 189.587 30.928C189.587 31.616 189.915 31.96 190.571 31.96C191.019 31.96 191.403 31.752 191.723 31.336C192.059 30.92 192.323 30.376 192.515 29.704H193.523C192.931 31.432 192.195 32.608 191.315 33.232C190.451 33.84 189.579 34.144 188.699 34.144C188.027 34.144 187.483 33.96 187.067 33.592C186.667 33.208 186.427 32.656 186.347 31.936C185.883 32.592 185.363 33.128 184.787 33.544C184.227 33.944 183.555 34.144 182.771 34.144ZM184.331 31.816C184.731 31.816 185.123 31.632 185.507 31.264C185.907 30.88 186.179 30.36 186.323 29.704L187.475 24.28C187.475 24.072 187.395 23.872 187.235 23.68C187.075 23.472 186.827 23.368 186.491 23.368C185.851 23.368 185.275 23.744 184.763 24.496C184.251 25.232 183.851 26.128 183.563 27.184C183.275 28.224 183.131 29.144 183.131 29.944C183.131 30.744 183.243 31.256 183.467 31.48C183.707 31.704 183.995 31.816 184.331 31.816ZM195.259 34.144C194.491 34.144 193.843 34 193.315 33.712C192.787 33.408 192.395 33.024 192.139 32.56C191.883 32.08 191.755 31.584 191.755 31.072C191.755 30.544 191.883 30.088 192.139 29.704C192.379 29.304 192.675 29.016 193.027 28.84C193.651 27.72 194.195 26.592 194.659 25.456C195.123 24.304 195.563 23.064 195.979 21.736L199.531 21.256C199.611 23.304 199.747 25.52 199.939 27.904C200.019 28.864 200.059 29.56 200.059 29.992C200.059 30.36 200.027 30.664 199.963 30.904C200.715 30.472 201.291 30.072 201.691 29.704H202.699C201.675 30.888 200.451 31.888 199.027 32.704C198.563 33.2 197.987 33.568 197.299 33.808C196.627 34.032 195.947 34.144 195.259 34.144ZM194.491 32.248C195.083 32.248 195.579 32.072 195.979 31.72C196.379 31.368 196.579 30.8 196.579 30.016C196.579 29.536 196.531 28.864 196.435 28C196.275 26.176 196.171 24.952 196.123 24.328C195.739 25.592 195.091 27.104 194.179 28.864C194.547 29.056 194.731 29.336 194.731 29.704C194.731 30.008 194.627 30.28 194.419 30.52C194.227 30.76 193.979 30.88 193.675 30.88C193.339 30.88 193.123 30.776 193.027 30.568C193.027 31.144 193.139 31.568 193.363 31.84C193.603 32.112 193.979 32.248 194.491 32.248ZM204.064 34.144C203.296 34.144 202.672 33.904 202.192 33.424C201.728 32.944 201.495 32.224 201.495 31.264C201.495 30.864 201.559 30.344 201.688 29.704L203.128 22.96H202.336L202.528 22H203.32L204.04 18.688L207.592 18.208L206.776 22H208.216L208.023 22.96H206.584L205.048 30.16C204.984 30.4 204.952 30.656 204.952 30.928C204.952 31.248 205.024 31.48 205.168 31.624C205.328 31.752 205.584 31.816 205.936 31.816C206.4 31.816 206.832 31.624 207.232 31.24C207.632 30.84 207.92 30.328 208.096 29.704H209.104C208.512 31.432 207.752 32.608 206.824 33.232C205.896 33.84 204.976 34.144 204.064 34.144ZM211.518 34.144C210.334 34.144 209.414 33.84 208.758 33.232C208.102 32.608 207.774 31.64 207.774 30.328C207.774 29.224 207.99 28.008 208.422 26.68C208.854 25.352 209.558 24.208 210.534 23.248C211.51 22.272 212.75 21.784 214.254 21.784C216.014 21.784 216.894 22.552 216.894 24.088C216.894 24.984 216.638 25.808 216.126 26.56C215.614 27.312 214.934 27.92 214.086 28.384C213.238 28.832 212.334 29.088 211.374 29.152C211.342 29.632 211.326 29.952 211.326 30.112C211.326 30.896 211.462 31.432 211.734 31.72C212.006 31.992 212.446 32.128 213.054 32.128C213.918 32.128 214.654 31.928 215.262 31.528C215.886 31.128 216.566 30.52 217.302 29.704H218.118C216.342 32.664 214.142 34.144 211.518 34.144ZM211.566 28C212.158 27.968 212.718 27.76 213.246 27.376C213.79 26.992 214.222 26.504 214.542 25.912C214.878 25.32 215.046 24.696 215.046 24.04C215.046 23.384 214.846 23.056 214.446 23.056C213.87 23.056 213.302 23.56 212.742 24.568C212.198 25.576 211.806 26.72 211.566 28ZM218.929 22H222.385L222.073 23.488C222.617 23.008 223.105 22.64 223.537 22.384C223.985 22.128 224.465 22 224.977 22C225.489 22 225.889 22.176 226.177 22.528C226.481 22.88 226.633 23.304 226.633 23.8C226.633 24.264 226.481 24.672 226.177 25.024C225.873 25.376 225.449 25.552 224.905 25.552C224.553 25.552 224.313 25.472 224.185 25.312C224.073 25.136 223.985 24.888 223.921 24.568C223.873 24.36 223.825 24.208 223.777 24.112C223.729 24.016 223.641 23.968 223.513 23.968C223.177 23.968 222.889 24.04 222.649 24.184C222.425 24.312 222.129 24.544 221.761 24.88L219.841 34H216.385L218.929 22ZM232.032 34.384C230.224 34.384 228.896 33.928 228.048 33.016C227.2 32.104 226.776 30.592 226.776 28.48C226.776 26.8 227.056 24.992 227.616 23.056C228.192 21.12 229.104 19.464 230.352 18.088C231.616 16.696 233.216 16 235.152 16C236.352 16 237.32 16.264 238.056 16.792C238.792 17.32 239.16 18.128 239.16 19.216C239.16 19.904 239.024 20.448 238.752 20.848C238.48 21.232 238.056 21.424 237.48 21.424C236.904 21.424 236.448 21.216 236.112 20.8C236.4 20.656 236.656 20.368 236.88 19.936C237.104 19.504 237.216 19.056 237.216 18.592C237.216 18.16 237.096 17.808 236.856 17.536C236.632 17.264 236.264 17.128 235.752 17.128C234.904 17.128 234.096 17.712 233.328 18.88C232.56 20.032 231.936 21.488 231.456 23.248C230.992 25.008 230.76 26.704 230.76 28.336C230.76 29.552 230.968 30.48 231.384 31.12C231.8 31.76 232.552 32.08 233.64 32.08C234.584 32.08 235.456 31.872 236.256 31.456C237.056 31.04 237.744 30.448 238.32 29.68L238.872 29.92C238.472 30.928 237.88 31.768 237.096 32.44C236.312 33.112 235.472 33.608 234.576 33.928C233.68 34.232 232.832 34.384 232.032 34.384ZM246.914 34.144C245.938 34.144 245.218 33.888 244.754 33.376C244.306 32.848 244.082 32.2 244.082 31.432C244.082 31.096 244.122 30.72 244.202 30.304C244.282 29.872 244.362 29.456 244.442 29.056C244.538 28.656 244.602 28.4 244.634 28.288C244.762 27.728 244.882 27.176 244.994 26.632C245.106 26.088 245.162 25.648 245.162 25.312C245.162 24.496 244.874 24.088 244.298 24.088C243.882 24.088 243.514 24.296 243.194 24.712C242.874 25.112 242.618 25.64 242.426 26.296L240.794 34H237.338L240.818 17.68L244.37 17.2L243.074 23.248C243.874 22.352 244.81 21.904 245.882 21.904C246.698 21.904 247.346 22.128 247.826 22.576C248.306 23.024 248.546 23.704 248.546 24.616C248.546 25.08 248.49 25.6 248.378 26.176C248.266 26.736 248.106 27.424 247.898 28.24C247.77 28.736 247.65 29.224 247.538 29.704C247.442 30.168 247.394 30.536 247.394 30.808C247.394 31.128 247.466 31.376 247.61 31.552C247.754 31.728 248.002 31.816 248.354 31.816C248.834 31.816 249.218 31.648 249.506 31.312C249.794 30.96 250.082 30.424 250.37 29.704H251.378C250.786 31.464 250.098 32.648 249.314 33.256C248.546 33.848 247.746 34.144 246.914 34.144ZM253.799 34.144C252.615 34.144 251.695 33.84 251.039 33.232C250.383 32.608 250.055 31.64 250.055 30.328C250.055 29.224 250.271 28.008 250.703 26.68C251.135 25.352 251.839 24.208 252.815 23.248C253.791 22.272 255.031 21.784 256.535 21.784C258.295 21.784 259.175 22.552 259.175 24.088C259.175 24.984 258.919 25.808 258.407 26.56C257.895 27.312 257.215 27.92 256.367 28.384C255.519 28.832 254.615 29.088 253.655 29.152C253.623 29.632 253.607 29.952 253.607 30.112C253.607 30.896 253.743 31.432 254.015 31.72C254.287 31.992 254.727 32.128 255.335 32.128C256.199 32.128 256.935 31.928 257.543 31.528C258.167 31.128 258.847 30.52 259.583 29.704H260.399C258.623 32.664 256.423 34.144 253.799 34.144ZM253.847 28C254.439 27.968 254.999 27.76 255.527 27.376C256.071 26.992 256.503 26.504 256.823 25.912C257.159 25.32 257.327 24.696 257.327 24.04C257.327 23.384 257.127 23.056 256.727 23.056C256.151 23.056 255.583 23.56 255.023 24.568C254.479 25.576 254.087 26.72 253.847 28ZM257.418 40C256.666 40 256.01 39.752 255.45 39.256C254.874 38.776 254.586 38.16 254.586 37.408C254.586 36.72 254.762 36.152 255.114 35.704C255.466 35.256 255.922 34.896 256.482 34.624C257.042 34.368 257.786 34.096 258.714 33.808L261.618 20.104C261.938 18.568 262.498 17.504 263.298 16.912C264.114 16.32 265.01 16.024 265.986 16.024C266.738 16.024 267.394 16.272 267.954 16.768C268.53 17.248 268.818 17.864 268.818 18.616C268.818 18.984 268.794 19.312 268.746 19.6H267.618C267.65 19.248 267.666 19.032 267.666 18.952C267.666 18.696 267.578 18.496 267.402 18.352C267.226 18.208 267.01 18.136 266.754 18.136C266.418 18.136 266.09 18.288 265.77 18.592C265.45 18.88 265.218 19.384 265.074 20.104L264.666 22H266.418L266.25 22.96H264.474L261.714 35.92C261.394 37.472 260.842 38.536 260.058 39.112C259.274 39.704 258.394 40 257.418 40ZM256.866 37.864C257.506 37.864 257.962 37.24 258.234 35.992L258.546 34.6C257.698 34.888 257.05 35.216 256.602 35.584C256.138 35.968 255.906 36.464 255.906 37.072C255.906 37.264 256.002 37.44 256.194 37.6C256.386 37.776 256.61 37.864 256.866 37.864Z" fill="#614E56"/>
<g clip-path="url(#clip0)">
<path d="M7.07743 22.0372C7.4616 22.3025 8.65842 23.1869 8.6732 23.1575C8.6732 23.1575 8.28903 22.5531 8.21515 22.4499C7.38772 21.197 6.76715 19.8408 6.33865 18.3963C4.38828 11.8662 7.16609 4.98235 13.1502 1.51832C14.2436 0.884471 15.3961 0.412773 16.6077 0.0737403C16.7554 0.0295186 16.9032 -0.0441843 17.0805 0.0442591C17.1544 0.132703 17.1839 0.250627 17.0805 0.33907C16.6225 0.707585 16.4747 1.25299 16.2826 1.76891C15.8246 2.91867 15.4404 4.11266 15.2779 5.33612C15.0562 6.95758 15.6029 8.32846 16.9327 9.30133C18.0705 10.1268 19.7697 9.93518 20.7153 8.91808C21.2915 8.29898 21.4097 7.42928 21.0256 6.63329C20.6119 5.79308 19.8731 5.33612 19.0309 5.40982C18.9274 5.42457 18.8092 5.45405 18.7058 5.3656C18.6024 5.20346 18.7206 5.07079 18.7945 4.93813C19.5185 3.8031 20.6119 3.28718 21.8973 3.13978C23.6113 2.94815 25.0445 3.62622 26.33 4.6728C26.5664 4.86442 26.7881 5.07079 27.054 5.30664C27.1427 5.04131 27.2166 4.80546 27.3052 4.56961C27.645 3.56725 28.0588 2.59438 28.7828 1.79839C29.7284 0.781287 30.8661 0.515957 32.1664 1.04662C33.378 1.53306 34.2941 2.40275 35.1215 3.36089C36.5104 4.93813 37.5447 6.75122 38.5199 8.59379C38.904 9.33082 39.1109 10.1268 39.4951 10.9081C40.0713 10.6722 40.6328 10.4364 41.1942 10.2005C43.6027 9.16867 45.9077 7.93046 48.257 6.7807C49.0401 6.39744 49.838 6.02893 50.6802 5.80782C52.2759 5.3656 53.1181 6.04367 52.9852 7.69461C52.9113 8.65275 52.6158 9.56666 52.1725 10.4216C51.9804 10.3037 52.01 10.1415 52.0838 9.96466C52.2021 9.66985 52.2907 9.3603 52.4237 9.06549C52.6749 8.46112 52.6749 7.82728 52.7192 7.19343C52.6896 7.14921 52.6305 7.20817 52.6749 7.17869C52.6896 7.16395 52.7044 7.17869 52.7044 7.19343C52.734 7.35558 52.7192 7.53247 52.7192 7.69461C52.7192 7.76832 52.7044 7.84202 52.601 7.81254C52.468 7.65039 52.5123 7.45876 52.5123 7.28188C52.4828 6.39744 52.0395 6.04367 51.1678 6.20582C50.3699 6.35322 49.6163 6.67751 48.8923 7.04603C47.4739 7.73883 46.0554 8.46112 44.637 9.16867C43.2037 9.87622 41.7557 10.5395 40.2782 11.1292C40.1452 11.1881 39.9974 11.2176 39.8497 11.3945C40.027 12.1168 40.2486 12.8686 40.5293 13.5908C40.751 13.6351 40.8544 13.5024 40.9726 13.4287C41.7114 12.957 42.3615 12.3821 43.0264 11.822C43.1003 11.763 43.1742 11.6893 43.2628 11.6451C43.381 11.5714 43.4992 11.5861 43.6027 11.6893C43.7061 11.7925 43.7061 11.9104 43.647 12.0283C43.5879 12.1463 43.4992 12.22 43.4106 12.3084C41.5636 14.0331 39.4212 15.2713 37.0571 16.1557C35.6534 16.6864 34.1906 17.0254 32.6983 17.1875C30.0091 17.4676 27.3791 17.2318 24.8081 16.3915C24.6013 16.3326 24.4092 16.2441 24.3649 15.9936C24.4683 15.7135 24.6899 15.743 24.9116 15.7872C25.3844 15.8904 25.8276 16.0673 26.3005 16.1557C26.4482 16.1852 26.5812 16.2441 26.7881 16.1852C26.6699 15.625 26.6108 15.0502 26.4778 14.4753C26.1527 14.3721 25.8424 14.4016 25.5469 14.4311C25.2071 14.4753 24.8672 14.49 24.5126 14.49C23.4192 14.4753 22.3258 14.6227 21.2324 14.5637C19.5185 14.4605 17.7897 14.49 16.0758 14.5048C15.3961 14.5048 14.7164 14.5637 14.0811 14.7701C13.6821 14.9027 13.3127 15.0649 13.2389 15.5513C13.2241 15.625 13.2093 15.6987 13.165 15.7724C12.9286 15.8461 13.0763 15.6103 13.0172 15.5808C12.9877 15.7872 13.0468 16.0378 12.7808 16.1557C12.5001 15.7577 12.5444 15.227 12.899 14.7996C13.1797 14.4753 13.5196 14.2394 13.9333 14.1362C14.4948 13.9888 15.071 13.9004 15.6473 13.9004C16.4304 13.9004 17.2135 13.8562 17.9966 13.8856C20.0947 13.9299 22.1929 13.9004 24.3058 13.9004C24.8525 13.9004 25.4139 13.8119 25.9606 13.8119C26.1084 13.8119 26.2561 13.7825 26.4039 13.6498C26.3448 13.1486 26.4187 12.6032 26.3448 12.0726C26.2118 11.0702 26.3596 10.0678 26.4039 9.06549C26.4482 8.07787 26.596 7.11973 26.8028 6.14685C26.8472 5.94049 26.8176 5.7636 26.6551 5.60145C25.9458 4.92339 25.1627 4.31902 24.2319 3.95051C22.7987 3.37563 21.4245 3.49355 20.1095 4.30428C19.8583 4.42221 19.681 4.59909 19.5185 4.8202C19.6367 4.98235 19.8288 4.90865 19.9617 4.96761C21.2029 5.42457 21.9564 6.66277 21.7791 7.95994C21.6905 8.56431 21.3802 9.09497 20.8926 9.49296C19.1048 10.9228 16.6077 10.3921 15.4552 8.35794C14.7755 7.14921 14.5982 5.89626 14.938 4.55487C15.2483 3.33141 15.5882 2.10794 16.1053 0.958174C16.1201 0.913953 16.1496 0.869731 16.0905 0.796028C15.9132 0.796028 15.7507 0.884471 15.5882 0.943434C12.2193 2.2406 9.69271 4.43695 7.94919 7.51773C7.00356 9.18341 6.45686 10.9818 6.3091 12.898C5.99882 16.6864 7.01833 20.1062 9.3381 23.128C9.48585 23.3196 9.72226 23.526 9.5154 23.7766C9.30855 24.0272 9.05736 23.8503 8.8505 23.7471C8.1856 23.4375 7.5798 23.0543 7.00356 22.6121C6.87058 22.5236 6.73759 22.4204 6.69327 22.2583C6.70804 21.9782 6.92968 22.0961 7.07743 22.0372Z" fill="#1D1812"/>
<path d="M12.707 16.0968C12.6774 15.8462 12.9286 15.7135 12.8695 15.4482C13.0321 15.5366 12.9582 15.5219 13.0616 15.6103C13.1207 15.6398 13.1503 15.8462 13.165 15.9051C13.7413 17.3792 14.8938 18.3373 16.1201 19.1923C19.1196 21.3002 22.518 22.3762 26.1232 22.8922C27.2905 23.0543 28.4725 23.1428 29.6398 23.1428C31.0287 23.1428 32.4028 23.0101 33.777 22.7742C36.4809 22.3025 39.0814 21.5066 41.5046 20.2094C43.5436 19.1186 45.4497 17.8214 47.1489 16.2294C48.257 15.1976 49.2174 14.0626 50.1335 12.8833C50.3108 12.6622 50.4881 12.4411 50.5916 12.1758C50.7984 11.7483 51.1383 11.3945 51.3451 10.967C51.7145 10.23 52.0396 9.4635 52.2908 8.66751C52.3351 8.54959 52.3203 8.43166 52.3351 8.299C52.3942 8.12211 52.3499 7.901 52.5715 7.79782C52.734 7.57671 52.5863 7.32612 52.7193 7.09027C52.7193 7.29664 52.7488 7.50301 52.7045 7.69463C52.6454 7.97471 52.7193 8.24004 52.6602 8.52011C52.542 9.00655 52.3203 9.4635 52.1578 9.9352C52.0987 10.0973 52.0839 10.23 52.143 10.3922C51.9657 10.4953 51.8771 10.687 51.8032 10.8491C51.5668 11.4093 51.2565 11.9252 50.8871 12.4116C50.7984 12.5148 50.8871 12.559 50.8871 12.6032C50.1631 13.7972 49.247 14.8291 48.2718 15.8167C46.676 17.4382 44.8882 18.809 42.9378 19.9735C42.8196 20.0472 42.7014 20.1062 42.5684 20.1946C42.7753 20.9759 42.9526 21.7571 43.1004 22.5531C43.5436 25.1917 43.5584 27.8303 43.189 30.4688C43.189 30.513 43.1595 30.5573 43.1447 30.6015C43.056 30.7784 43.0413 30.97 42.9822 31.1469C42.923 31.3533 42.8196 31.5007 42.6275 31.2501C42.5832 30.9847 42.6571 30.7194 42.7014 30.4541C42.9674 28.8179 43.056 27.1669 42.9378 25.5307C42.8344 24.0272 42.6719 22.5089 42.2434 21.0496C42.2138 20.9317 42.2138 20.799 42.0956 20.6958C41.8888 20.6516 41.7115 20.7548 41.5341 20.858C40.1452 21.6097 38.6677 22.1551 37.1458 22.6121C37.0719 22.6268 36.998 22.6563 36.9389 22.6858C35.8751 22.9659 34.8113 23.2607 33.7031 23.3639C33.2598 23.3049 32.8313 23.2607 32.4028 23.4081C32.196 23.4818 31.9448 23.4965 31.7084 23.4376C31.5606 23.4081 31.3833 23.3933 31.2356 23.4376C30.6593 23.6439 30.0683 23.5997 29.4773 23.5408C28.8862 23.4965 28.2952 23.526 27.719 23.4965C27.453 23.4818 27.2166 23.4376 26.9654 23.3786C26.4926 23.2754 26.005 23.2754 25.5174 23.3344C24.7343 23.3639 23.9955 23.1133 23.242 22.9364C21.3212 22.4794 19.489 21.7866 17.7455 20.8727C16.3122 20.1209 14.9824 19.2365 13.8743 18.0573C13.4458 17.615 13.0764 17.1286 12.8104 16.5685C12.7365 16.4653 12.5888 16.2589 12.707 16.0968Z" fill="#1D1812"/>
<path d="M7.0036 42.8803C5.09755 41.082 3.47223 39.0625 2.36406 36.6598C-0.679709 30.1003 -0.783138 23.4817 2.00945 16.8043C2.23108 16.2736 2.51182 15.7724 2.763 15.2565C2.82211 15.1386 2.88121 14.9912 3.04374 15.0207C3.22105 15.0501 3.22105 15.1975 3.23582 15.3302C3.47223 17.1286 4.22579 18.7353 5.27485 20.1946C5.37828 20.342 5.54081 20.4452 5.61469 20.6221C5.52604 20.799 5.68857 20.9759 5.59992 21.1527C5.57036 21.1675 5.52604 21.1675 5.49649 21.1527C5.2453 21.0053 5.09755 20.7547 4.92024 20.5336C3.98938 19.3249 3.3097 17.9835 2.94031 16.4947C2.91076 16.4063 2.91076 16.3031 2.82211 16.2146C2.26063 17.3349 1.81737 18.4847 1.46275 19.6639C0.975157 21.3001 0.635319 22.9806 0.546665 24.6905C0.398909 27.5207 0.635319 30.3214 1.47753 33.0484C2.11288 35.1121 2.98464 37.0578 4.19623 38.8562C4.87591 39.8733 5.70334 40.8019 6.48645 41.7306C6.61943 41.9517 6.82629 42.1138 6.98882 42.2907C7.09225 42.3939 7.21045 42.4971 7.16613 42.6592C7.15135 42.7919 7.09225 42.8509 7.0036 42.8803Z" fill="#191611"/>
<path d="M42.7161 31.309C42.8935 31.4122 42.9378 31.2795 42.9378 31.1616C42.9378 30.9405 43.0264 30.7931 43.1742 30.6456C43.1594 30.8373 43.1446 31.0289 43.1299 31.2648C43.5731 31.1616 43.913 30.9257 44.238 30.6604C44.9029 30.1002 45.3905 29.3927 45.8929 28.6999C46.0702 28.4346 46.2623 28.184 46.4691 27.9334C46.5578 27.8302 46.676 27.7418 46.8238 27.8007C46.9863 27.8449 47.0306 27.9924 47.0602 28.1398C47.0749 28.2282 47.0749 28.3166 47.0602 28.3903C46.7203 30.1887 46.085 31.8544 44.7995 33.2105C44.5188 33.5053 44.2085 33.7559 43.8391 33.9475C43.5879 33.8886 43.647 33.7117 43.7061 33.5348C43.9868 33.1958 44.4006 33.0041 44.6517 32.6356C45.0359 32.1787 45.3462 31.6922 45.6269 31.1763C45.8633 30.7194 46.0554 30.2477 46.1736 29.7465C46.218 29.4959 46.2623 29.2453 46.3953 29.0242C46.4691 28.9063 46.4839 28.7736 46.543 28.6409C46.4396 28.7294 46.3805 28.8326 46.3362 28.9357C45.8338 29.6875 45.2871 30.4098 44.6074 31.0289C43.5288 32.0018 42.1547 32.105 40.8987 31.3385C40.1009 30.852 39.4212 30.2034 38.7415 29.5696C38.2096 29.0832 37.6333 28.6409 36.8798 28.523C36.2149 28.4051 35.2102 28.862 34.8703 29.4369C34.6635 29.7907 34.5896 30.1592 34.7964 30.5572C34.8999 30.7636 35.0033 30.9699 35.1215 31.1763C35.2545 31.4416 35.5943 31.5596 35.5943 31.9133C35.4318 32.1639 35.2988 32.0607 35.1363 31.8986C34.826 31.5743 34.5748 31.2058 34.3827 30.7931C34.3236 30.6751 34.2497 30.5867 34.1759 30.4982C33.9247 29.8939 34.102 29.3632 34.5009 28.9063C35.151 28.1398 35.9933 27.786 36.998 27.9039C37.9141 28.0808 38.6085 28.6409 39.2882 29.2306C39.9383 29.7907 40.5146 30.4393 41.2829 30.852C41.342 30.8962 41.4011 30.9257 41.4602 30.9552C41.8296 31.2058 42.2729 31.2353 42.7161 31.309Z" fill="#211C17"/>
<path d="M41.9773 35.3479C41.1499 37.9422 39.7758 40.2565 38.0618 42.3497C35.6091 45.342 32.6244 47.6563 29.0044 49.0861C28.8123 49.1598 25.8424 50.398 22.0599 49.7789C21.8234 49.602 28.3543 48.9977 28.502 48.9387C28.8271 48.7913 29.1669 48.6586 29.5067 48.5702C29.7727 48.4965 29.9648 48.2901 30.2308 48.2459C30.2455 48.2459 30.1864 48.2017 30.1716 48.1722C30.1864 47.9806 30.349 47.9511 30.4672 47.8921C32.1811 47.0519 33.7178 45.9169 35.151 44.6639C36.8354 43.2046 38.2096 41.4947 39.4064 39.6227C39.7462 39.092 40.027 38.5171 40.3816 37.9865C40.4111 37.957 40.4407 37.9423 40.4702 37.9128C40.9283 37.3379 41.1499 36.6598 41.3863 35.967C41.4897 35.6427 41.5932 35.3184 41.9035 35.1121C41.9921 35.171 42.0364 35.23 41.9773 35.3479Z" fill="#191611"/>
<path d="M7.00366 42.8804C7.01844 42.7919 7.04799 42.7182 7.15142 42.7182C7.31395 42.6593 7.25485 42.674 7.4026 42.674C8.0675 43.2047 8.89494 43.8975 9.48596 44.5166C9.64849 44.7672 9.87012 44.9293 10.1509 45.003C10.9192 45.46 11.6136 46.0201 12.382 46.4918C13.6674 47.2878 14.9972 47.9806 16.4009 48.5408C16.8442 48.7176 17.2875 48.8945 17.7603 48.9682C18.765 49.2778 19.7845 49.4694 20.8336 49.4547C20.9814 49.4547 21.1291 49.4694 21.2621 49.4105C21.794 49.2925 21.8383 49.3073 21.9565 49.7495C22.0156 49.6316 22.1043 49.5579 22.2521 49.5873C23.1829 49.779 24.6605 49.8084 25.6061 49.8232C25.6652 49.8379 24.0103 49.9706 23.4046 49.9116C22.917 49.8674 22.4589 49.8821 21.9713 49.9411C19.9175 50.1622 17.9671 49.7053 16.0759 48.9535C13.0321 47.7448 10.3725 45.9169 7.91975 43.7648C7.62424 43.47 7.31395 43.1752 7.00366 42.8804Z" fill="#191611"/>
<path d="M25.0888 49.9116C24.0989 49.9853 23.1237 49.8526 22.1633 49.6757C22.0451 49.661 22.0894 49.8379 21.9564 49.8526C21.8973 49.7199 21.8234 49.5725 21.7643 49.4251C21.6018 49.4546 21.4688 49.4841 21.3211 49.5136C21.1585 49.5873 21.0108 49.5136 20.863 49.4546C19.3411 48.806 18.0704 47.8626 17.1248 46.477C16.9032 46.1527 16.6815 45.799 16.6077 45.401C16.7702 45.1209 16.8441 45.1209 17.1248 45.4304C17.509 45.9316 17.834 46.4918 18.2773 46.9487C19.5776 48.3049 21.1438 49.1303 23.0055 49.4251C23.1828 49.4546 23.3749 49.4841 23.5522 49.5136C24.158 49.5578 24.749 49.5725 25.3548 49.4988C26.8915 49.3219 28.3542 48.8945 29.7727 48.2606C29.9057 48.2017 30.0387 48.1132 30.1864 48.1722C30.2898 48.1722 30.3933 48.2459 30.5115 48.2164C29.9648 48.4817 29.4181 48.7471 28.8271 48.924C28.6645 48.9682 26.0493 49.8231 25.0888 49.9116Z" fill="#191611"/>
<path d="M41.9035 35.1268C41.5193 35.687 41.3716 36.3356 41.1352 36.9547C41.0022 37.3232 40.7806 37.6917 40.4998 38.0012C40.3964 37.8538 40.4998 37.7212 40.5589 37.6032C40.7362 37.2642 40.884 36.9252 41.0022 36.5714C41.017 36.5419 41.0317 36.4977 41.0465 36.4682C41.2682 36.0555 41.342 35.5838 41.5341 35.1563C41.5784 35.0531 41.6523 34.9647 41.5637 34.8468C41.0908 34.7583 40.6033 34.832 40.1157 34.7878C39.5542 34.6699 38.9927 34.5667 38.446 34.3603C37.5447 34.0508 36.7616 33.5348 36.0228 32.9452C35.7125 32.7094 35.4466 32.444 35.1806 32.1787C34.826 31.8397 34.5157 31.4712 34.3089 31.0289C34.235 30.8815 34.0872 30.7194 34.235 30.5278C34.5009 30.6015 34.5305 30.8815 34.5896 31.0437C34.7226 31.4712 35.1511 31.6481 35.284 32.0018C35.4318 32.046 35.4761 31.9281 35.55 31.9134C35.7716 31.8692 35.8898 32.0313 36.0228 32.1492C36.7321 32.7683 37.5152 33.3137 38.3869 33.6822C40.0418 34.3898 41.6966 34.5225 43.3515 33.6528C43.4697 33.5938 43.5879 33.5054 43.7209 33.5938C43.6618 33.7265 43.647 33.8591 43.7948 33.9476C43.7357 33.9771 43.6914 34.0065 43.6323 34.036C43.0708 34.0655 42.598 34.3456 42.0956 34.5077C42.0069 34.7288 42.1104 34.9794 41.9035 35.1268Z" fill="#241A10"/>
<path d="M7.07743 22.0372C6.87058 22.052 7.13654 22.1699 7.04788 22.1994C6.92968 22.3026 6.82625 22.0077 6.70804 22.1994C6.61939 22.2289 6.53074 22.1994 6.47163 22.1404C6.16135 21.8898 5.89539 21.6097 5.6442 21.3149C5.59988 21.2707 5.5851 21.2118 5.61465 21.138L5.62943 21.1233C5.7033 21.0496 5.65898 21.0054 5.61465 20.9317C5.54077 20.8138 5.57032 20.7253 5.7033 20.6811C5.89539 20.8875 6.08747 21.0791 6.27955 21.2855C6.23523 21.3444 6.14657 21.3149 6.08747 21.3444C6.16135 21.3739 6.22045 21.3297 6.27955 21.3002C6.53074 21.5508 6.81147 21.7866 7.07743 22.0372Z" fill="#1F1D19"/>
<path d="M41.9036 35.1268C41.9184 34.9204 42.0366 34.7141 41.874 34.434C42.5242 34.3603 42.9822 33.8149 43.6471 34.0213C43.2482 34.3455 42.7458 34.434 42.2877 34.6109C42.1252 34.832 42.1548 35.1268 41.9775 35.3332C41.9479 35.2742 41.9184 35.2005 41.9036 35.1268Z" fill="#211C17"/>
<path d="M50.9167 12.6327C50.8871 12.5884 50.8428 12.5295 50.8132 12.5C51.1087 11.9251 51.5372 11.4387 51.7441 10.8196C51.8032 10.6427 51.8918 10.4216 52.1578 10.4216C51.8475 11.2028 51.4338 11.9546 50.9167 12.6327Z" fill="#1D1812"/>
<path d="M5.68855 20.6958C5.64423 20.9022 5.64423 20.9022 5.77721 21.1085C5.73288 21.1675 5.67378 21.1528 5.61467 21.1528C5.58512 20.9759 5.31916 20.799 5.62945 20.6368C5.64423 20.6516 5.67378 20.6663 5.68855 20.6958Z" fill="#1F1D18"/>
<path d="M5.61473 21.1528C5.93979 21.5508 6.2944 21.9045 6.70812 22.1994C7.4469 22.9511 9.08699 23.8503 9.48593 23.7324C9.58936 23.5407 9.4416 23.4376 9.35295 23.3196C7.5651 21.1233 6.54559 18.6027 6.2353 15.8167C5.80681 12.0431 6.75245 8.60856 9.08699 5.60148C10.9044 3.27247 13.1946 1.62153 16.0167 0.678134C16.0906 0.648653 16.1793 0.633912 16.3122 0.604431C16.1202 1.10561 15.9281 1.54783 15.7508 2.01953C15.4109 2.94818 15.1154 3.90632 14.9233 4.87919C14.5687 6.72176 15.0711 8.28426 16.5339 9.49299C17.775 10.5101 19.6959 10.4216 20.8779 9.33084C22.1486 8.1516 21.7792 5.98474 20.1539 5.18875C20.0505 5.14452 19.9618 5.1003 19.8584 5.05608C19.5776 4.98238 19.5776 4.98238 19.4742 4.77601C19.5776 4.56964 19.7845 4.45172 19.9323 4.28957C21.0552 3.47884 22.2964 3.33143 23.6114 3.65573C24.956 3.99476 26.005 4.80549 26.9507 5.79311C26.6551 7.11976 26.4926 8.44641 26.4187 9.80254C26.3449 11.1439 26.404 12.4853 26.4926 13.8709C25.7982 13.9741 25.1333 13.9741 24.4684 14.0036C22.1043 14.092 19.7254 14.0183 17.3613 13.9889C16.3418 13.9741 15.3223 13.9741 14.3175 14.1657C13.9629 14.2247 13.6231 14.3279 13.3128 14.5195C12.707 14.9028 12.574 15.5661 12.7661 16.1557C12.8843 16.5537 13.1059 16.9517 13.3571 17.2907C14.288 18.5732 15.5439 19.5018 16.8885 20.3126C19.4742 21.8456 22.2668 22.789 25.2219 23.2902C25.2958 23.3049 25.3697 23.3049 25.4436 23.3049C25.8129 23.3196 26.1823 23.3049 26.5222 23.467C26.3449 23.7766 26.1823 24.0861 25.9755 24.3662C25.4436 25.0885 24.6752 25.2359 23.833 25.1475C23.3306 25.1032 22.8283 25.0295 22.3259 24.9853C21.3359 24.8674 20.0357 25.6044 19.5481 26.4889C18.9866 27.4912 19.0901 28.4788 19.5185 29.4664C19.8288 30.2035 20.2869 30.8668 20.7006 31.5449C21.07 32.1492 21.395 32.7536 21.6019 33.4317C22.1043 35.0384 21.4394 36.5419 19.9323 37.2789C18.9718 37.7359 17.9671 37.957 16.918 38.0602C15.7508 38.1781 14.5687 38.2666 13.4458 38.694C12.4263 39.092 11.6432 39.7111 11.3329 40.7872C11.0669 41.7306 11.259 42.6445 11.6727 43.4995C12.7366 45.6516 14.5096 47.0962 16.5191 48.3049C16.6521 48.3786 16.9033 48.3933 16.8146 48.6587C16.6669 48.7029 16.5339 48.6587 16.3861 48.6292C15.5291 48.3491 14.746 47.9364 13.9482 47.5236C12.6036 46.8308 11.3772 45.9611 10.1508 45.0767C8.15613 43.5437 5.82159 41.0673 5.46697 40.6693C2.80737 37.559 1.32981 33.9181 0.709236 29.9234C0.0886616 25.8992 0.487602 21.9488 1.93561 18.131C2.17202 17.4824 2.48231 16.8633 2.74827 16.2442C2.79259 16.1557 2.85169 16.0673 2.94035 15.9199C3.20631 17.0696 3.56092 18.1015 4.10762 19.0596C4.50656 19.7966 4.97938 20.5337 5.61473 21.1528Z" fill="#F4B740"/>
<path d="M52.6011 7.82727C52.4681 7.97468 52.5568 8.19578 52.4386 8.34319C52.2317 9.06548 51.8771 9.7288 51.4781 10.3626C50.0006 12.7359 48.0945 14.7259 45.9077 16.4358C43.6619 18.1751 41.2091 19.546 38.52 20.5042C36.3923 21.2559 34.2055 21.7718 31.9596 21.9782C29.0488 22.2435 26.1676 22.0667 23.3307 21.4033C21.2325 20.9169 19.2378 20.1946 17.3466 19.1775C15.8986 18.3963 14.5687 17.4676 13.4754 16.2294C13.3128 16.0378 13.1355 15.8314 13.0764 15.5808C13.0764 15.0649 13.4606 14.8733 13.8447 14.7259C14.4653 14.49 15.1154 14.431 15.7656 14.4163C17.0658 14.4016 18.3661 14.3868 19.6663 14.431C21.8383 14.49 24.0103 14.4458 26.1824 14.3131C26.2858 14.3131 26.3744 14.3131 26.5074 14.3131C26.6256 15.0059 26.7438 15.684 26.862 16.421C26.3006 16.3473 25.7982 16.1999 25.281 16.0525C25.089 15.9935 24.9117 15.9346 24.7196 15.8904C24.5866 15.8461 24.4536 15.8314 24.365 15.9935C24.3502 16.2147 24.5275 16.2441 24.6752 16.2884C26.9802 17.0401 29.3443 17.3202 31.7675 17.1728C35.9638 16.9075 39.6281 15.345 42.8344 12.6769C43.1004 12.4558 43.3811 12.22 43.588 11.9694C43.588 11.8072 43.4993 11.7335 43.322 11.704C42.4503 12.5 41.5194 13.2665 40.4408 13.9299C40.1601 13.0454 39.8941 12.2052 39.6281 11.3503C39.7611 11.2029 39.9384 11.1734 40.1009 11.1144C42.8788 10.0236 45.5088 8.60852 48.1832 7.28187C48.9811 6.88387 49.7642 6.50062 50.6212 6.25003C50.6655 6.23529 50.7098 6.22055 50.7689 6.20581C52.1135 5.85203 52.6454 6.26477 52.6011 7.66512C52.5863 7.70935 52.6011 7.76831 52.6011 7.82727Z" fill="#E8AD76"/>
<path d="M38.2983 9.13918C35.4614 10.9375 29.4034 11.9399 26.7734 11.0555C26.7438 10.1121 26.8177 9.15392 26.9359 8.21053C27.0837 6.88388 27.3496 5.57197 27.8077 4.30428C28.0736 3.56725 28.4282 2.8597 28.9158 2.2406C29.8171 1.13506 30.9549 0.884466 32.2403 1.50357C33.378 2.06371 34.2646 2.9334 35.0625 3.8768C36.3627 5.42456 37.3675 7.13446 38.2244 8.94755C38.254 9.00652 38.2688 9.06548 38.2983 9.13918Z" fill="#E8AD76"/>
<path d="M17.2873 19.0154C19.7549 20.3568 22.3997 21.1823 25.1627 21.6392C27.0983 21.9635 29.0487 22.052 30.9991 21.934C33.9246 21.7571 36.7616 21.1086 39.495 20.003C41.342 19.2512 43.0707 18.2931 44.7108 17.1581C46.3657 16.0083 47.858 14.6817 49.2026 13.2076C50.4437 11.8515 51.4928 10.3479 52.2611 8.65278C52.3055 8.5496 52.5419 7.73887 52.601 7.63568C52.6453 8.49063 52.0691 9.61092 51.8326 10.2153C51.5519 10.9376 51.1382 11.6009 50.6802 12.2347C50.5176 12.4558 50.3846 12.7064 50.2369 12.9128C49.6606 13.7825 48.9957 14.549 48.2717 15.3008C46.809 16.8338 45.1689 18.1604 43.3662 19.2807C40.1304 21.3149 36.599 22.5384 32.8165 23.0396C30.5854 23.3344 28.3395 23.3049 26.0936 23.0101C23.5522 22.6711 21.1142 21.9783 18.8092 20.8875C16.9918 20.0325 15.3222 18.9859 13.9776 17.4676C13.4752 16.8928 13.165 16.3621 13.0615 15.5661C14.1992 17.1286 15.6325 18.1162 17.2873 19.0154Z" fill="#B0794E"/>
<path d="M27.32 16.4358C27.1723 15.9493 27.1132 15.4924 27.0541 14.9617C31.4868 15.4629 35.6682 14.7701 39.6429 12.7211C39.7906 13.1928 39.9532 13.5908 40.0418 14.0773C38.7711 14.9322 37.3822 15.5513 35.9047 15.9935C33.0973 16.8485 30.2456 16.9812 27.32 16.4358Z" fill="#E25229"/>
<path d="M26.9506 14.5342C26.9063 14.0773 26.8767 13.6645 26.8472 13.1781C28.9601 13.4287 31.0582 13.4287 33.1268 13.0749C35.1954 12.7211 37.1605 12.0283 39.0518 11.0407C39.1995 11.4829 39.3325 11.8957 39.4803 12.3526C35.5352 14.3868 31.3685 15.0944 26.9506 14.5342Z" fill="#FAE9A4"/>
<path d="M26.8472 11.5124C30.9991 12.102 34.8703 11.4534 38.5051 9.50769C38.6824 9.83198 38.8449 10.3184 38.8745 10.6722C35.151 12.6474 31.206 13.3255 26.9654 12.7801C26.921 12.3821 26.8915 11.9694 26.8472 11.5124Z" fill="#ACDB45"/>
<path d="M19.8436 5.04131C19.5776 4.95287 19.4151 4.93813 19.2526 4.92339C19.4299 4.6728 19.622 4.43695 19.9175 4.2748C20.1539 4.09791 19.622 4.56961 19.5333 4.7465" fill="#F4B740"/>
<path d="M26.463 23.4818C26.1232 23.3933 25.5321 23.3491 25.1923 23.2754C25.6504 23.1722 26.3448 23.1722 26.8028 23.2754C27.3495 23.3933 27.8815 23.4375 28.4282 23.4228C28.9453 23.4081 29.4772 23.4818 29.9944 23.4818C30.3933 23.4965 30.7923 23.5112 31.1912 23.3638C31.531 23.2459 31.8856 23.4375 32.2403 23.3491C32.7278 23.2164 33.2154 23.1575 33.7178 23.2754C33.6883 23.4375 33.5553 23.4523 33.4371 23.467C32.388 23.6439 31.3389 23.7471 30.2751 23.7471C29.6841 23.7766 29.0783 23.7176 28.4282 23.7913C28.5316 24.3072 28.6793 24.7642 28.768 25.2506C28.9601 26.0319 29.034 26.8426 29.1374 27.6828C29.6398 27.6386 30.083 27.447 30.5706 27.4617C31.3389 27.5207 32.0038 27.7713 32.5505 28.3314C32.8608 28.6557 33.0677 28.9947 33.1268 29.4369C33.2154 30.3951 32.6096 30.9552 31.9447 31.4859C31.4572 31.8691 30.8957 32.1197 30.349 32.3556C29.9796 32.503 29.5954 32.6356 29.1965 32.7241C29.0044 32.7683 28.8567 32.8568 28.8123 33.0631C28.7089 33.6233 28.502 34.1392 28.3395 34.6846C27.3791 37.4411 25.7242 39.6522 23.2272 41.2147C22.71 41.5389 22.119 41.7453 21.5575 41.9959C21.1881 42.158 20.9813 41.9812 20.996 41.4947C21.0108 40.625 20.1243 39.9322 19.5333 39.8733C18.7354 39.7996 18.0557 40.0649 17.509 40.6398C17.0214 41.141 16.7998 41.7601 16.6964 42.4529C16.5338 43.4257 16.7998 44.3249 17.1101 45.2093C17.1101 45.2978 17.1101 45.3715 17.0362 45.4305C16.918 45.3568 16.8293 45.0472 16.652 45.3715C16.519 45.3567 16.4599 45.2536 16.4304 45.1504C15.8985 43.6174 15.795 42.0991 16.6964 40.6545C17.3317 39.6374 18.6763 39.0183 19.7253 39.2689C20.6119 39.49 21.2177 40.0354 21.5132 40.9051C21.5427 40.9935 21.5575 41.0672 21.6018 41.1409C21.6166 41.1557 21.6314 41.1704 21.6609 41.1852C24.025 40.9346 27.8962 36.0555 28.1474 32.9894C28.0144 32.8862 27.8667 32.9305 27.7189 32.9452C26.3153 33.0042 24.9707 32.8125 23.7 32.2082C21.7348 31.2943 20.4493 29.7907 19.9913 27.6533C19.9322 27.4027 19.9322 27.1374 19.947 26.8868C19.9618 26.6657 20.0356 26.4741 20.2573 26.3856C20.4789 26.3119 20.6414 26.4004 20.7892 26.5478C20.996 26.7394 21.1586 26.9458 21.3063 27.1669C21.5871 27.5944 21.9417 27.9776 22.2963 28.3461C23.3454 29.4222 24.5865 29.6581 25.9754 29.2011C26.7733 28.9358 27.4973 28.5083 28.2361 28.1398C28.5316 27.9924 28.4873 27.7123 28.4725 27.4617C28.3691 26.4446 28.2065 25.4422 27.9258 24.4546C27.7042 23.6881 27.7042 23.6881 26.9063 23.5997C26.7733 23.5997 26.5812 23.6586 26.463 23.4818Z" fill="#1D1812"/>
<path d="M36.9538 22.6121C38.5052 22.1404 40.0123 21.5655 41.4603 20.858C41.8445 20.6811 41.9627 20.7253 42.0366 21.138C42.1104 21.595 42.1695 22.0519 42.1695 22.5236C42.1548 23.0101 42.14 23.4965 42.2139 23.983C42.273 24.322 42.2434 24.661 42.1991 25.0148C42.1695 25.2654 42.2139 25.4865 42.465 25.6486C42.6867 25.7961 42.7753 26.5183 42.6128 26.7247C42.5389 26.8131 42.4355 26.7837 42.3321 26.7542C42.3912 27.2111 42.3321 27.6091 42.1695 28.0071C42.0957 28.184 42.0957 28.3609 42.0957 28.5525C42.0957 28.7147 42.1548 28.8916 42.1104 29.0242C41.9479 29.6139 41.9774 30.2624 41.7115 30.8373C41.6524 30.97 41.5342 31.0879 41.3569 30.9552C41.2978 30.8373 41.3273 30.7194 41.3421 30.6015C41.6672 29.2011 41.874 27.786 41.9775 26.3562C41.9922 26.2383 41.9922 26.1056 41.9775 25.9877C41.9775 25.914 41.9627 25.8403 41.9036 25.7666C41.741 25.6781 41.549 25.7223 41.3717 25.7371C40.1748 25.8992 38.9928 26.0614 37.7812 26.0614C37.6039 26.0614 37.4413 26.0761 37.2788 26.0024C37.2345 25.9877 37.2049 25.9582 37.1754 25.914C37.1163 25.7961 37.1015 25.6781 37.1163 25.5602C37.1311 24.7052 37.0276 23.865 36.9094 23.0101C36.9094 22.8774 36.9094 22.7448 36.9538 22.6121Z" fill="#A52A1C"/>
<path d="M36.9537 22.6121C37.131 23.0101 37.1015 23.4375 37.1754 23.8503C37.2788 24.5431 37.2788 25.2359 37.264 25.9287C37.1458 26.0614 36.9833 26.0466 36.8208 26.0466C34.8704 26.0908 32.9496 25.8845 31.0435 25.5307C30.8662 25.5012 30.6889 25.457 30.5264 25.3538C30.482 25.3391 30.4525 25.3096 30.4229 25.2801C30.2456 24.7494 30.0683 24.2188 30.2604 23.6439C31.3686 23.5997 32.4767 23.4965 33.5701 23.3344C33.6292 23.3196 35.7865 22.8774 36.7912 22.6268C36.8355 22.6268 36.8946 22.6268 36.9537 22.6121Z" fill="#AC5032"/>
<path d="M41.9035 21.138C41.8739 20.9317 41.6671 20.7843 41.4602 20.8432C41.7705 20.6516 42.0069 20.5337 42.0956 20.4894C42.2729 20.5484 42.3024 20.6663 42.332 20.7843C42.6718 22.2288 42.923 23.6734 43.0264 25.1475C43.1299 26.5626 43.1003 27.9482 42.9673 29.3633C42.9082 30.0118 42.7753 30.6457 42.7162 31.2943C42.2286 31.4269 41.8001 31.25 41.3716 31.0142C41.7262 30.8668 42.066 31.1321 42.5093 31.0584C42.8787 29.2748 42.9378 27.447 42.8639 25.6192C42.1547 25.457 42.1547 25.457 42.1695 24.7347C42.1695 24.1009 42.0217 22.0077 41.9035 21.138Z" fill="#771E12"/>
<path d="M6.50122 41.7601C6.85583 42.0991 7.26955 42.4676 7.56506 42.8361C7.37298 42.9393 7.25477 42.8214 7.12179 42.7919C7.07747 42.5413 6.88539 42.3055 6.73763 42.1286C6.66375 42.0254 6.516 41.9222 6.50122 41.7601Z" fill="#191611"/>
<path d="M30.4672 25.2801C32.6983 25.796 34.959 25.9729 37.2492 25.9287V25.9434C37.4413 26.1645 37.3674 26.4299 37.3822 26.6804C37.397 27.0342 37.3822 27.388 37.3083 27.7418C37.2788 27.8744 37.2788 28.0513 37.0424 28.0071C36.082 27.9186 35.2693 28.1987 34.6192 28.9063C34.2055 29.3632 34.0429 29.8939 34.2498 30.4982C34.3975 31.1616 34.8556 31.6333 35.2693 32.1197C35.5057 32.4735 35.8455 32.7683 36.0081 33.1663C36.0524 33.4464 35.9342 33.6969 35.8308 33.9475C35.1363 35.5985 34.2646 37.1315 33.1712 38.5466C31.605 40.566 29.7137 42.217 27.4973 43.4847C26.138 44.2659 24.7195 44.8408 23.1681 45.0619C22.6362 45.1356 22.1043 45.1798 21.5723 45.0324C21.5428 44.9882 21.5428 44.9293 21.5723 44.8998C21.8678 44.605 21.9861 44.2217 22.1043 43.8384C22.2816 43.6026 22.5623 43.5142 22.7987 43.3815C25.015 42.0696 26.7438 40.3007 28.0736 38.1044C28.8419 36.8219 29.4477 35.4806 29.8467 34.036C29.8762 33.977 29.9058 33.9328 29.9501 33.9033C30.4377 33.6969 30.9548 33.579 31.4129 33.3432C31.5163 33.299 31.6197 33.299 31.7379 33.3432C31.8561 33.4021 31.9152 33.5053 32.0039 33.5938C32.4767 34.1244 33.2155 34.1981 33.7031 33.7412C34.1907 33.299 34.2055 32.5619 33.7179 32.0313C33.6735 31.9723 33.6144 31.9281 33.5701 31.8691C33.4814 31.7217 33.511 31.5596 33.5258 31.4122C33.5553 31.1616 33.5849 30.8815 33.4223 30.6751C33.1712 30.3214 33.053 29.9234 33.053 29.4959C32.8165 28.4935 31.8709 27.6975 30.8662 27.6533C30.7775 27.6533 30.6298 27.6386 30.5263 27.6533C30.4377 27.5649 30.5116 27.3732 30.5116 27.2553C30.5263 26.7247 30.4377 26.194 30.3934 25.6633C30.3786 25.5012 30.3638 25.3685 30.4672 25.2801Z" fill="#EC6A46"/>
<path d="M43.7504 33.5791C43.1594 33.8444 42.5979 34.1687 41.9478 34.2571C41.0317 34.3898 40.1452 34.3603 39.2586 34.095C37.9732 33.7117 36.8946 33.0042 35.8898 32.1492C35.5795 31.8839 35.1806 31.5596 35.0476 31.2353C35.5057 29.8939 37.2344 29.1716 38.5051 29.8497C38.9484 30.0855 39.3473 30.3804 39.7315 30.7194C40.4407 31.3238 41.0908 32.0018 41.8887 32.4883C42.6718 32.9599 43.4992 33.0484 44.3562 32.7388C44.4597 32.6946 44.5779 32.6209 44.6961 32.7094C44.4449 33.0631 44.0459 33.2695 43.7504 33.5791Z" fill="#59311E"/>
<path d="M37.0867 28.0071C37.131 27.8008 37.2197 27.4765 37.2492 27.2112C37.2935 26.7984 37.264 26.3709 37.264 25.9435C38.8745 25.9877 40.4703 25.6929 42.1399 25.5455C42.0956 27.4323 41.8296 29.2011 41.3864 30.9405C41.342 30.9847 41.2829 30.9847 41.2386 30.9553C40.4407 30.5573 39.8645 29.8792 39.2143 29.3191C38.7563 28.9211 38.2835 28.5231 37.7368 28.2577C37.5004 28.1398 37.3083 28.0956 37.0867 28.0071Z" fill="#E43727"/>
<path d="M44.6961 32.6947C43.4254 33.299 42.3024 33.0042 41.2534 32.1787C40.4703 31.5596 39.7758 30.8226 38.9484 30.2477C37.7072 29.3633 36.5252 29.5844 35.5057 30.572C35.2988 30.7636 35.1806 30.8521 35.0329 31.2353C34.4566 30.4099 34.368 29.8202 34.8112 29.2896C35.3875 28.582 36.4513 28.1103 37.456 28.582C37.9436 28.8179 38.3869 29.1127 38.7858 29.4959C39.4655 30.1298 40.1304 30.7931 40.9431 31.2648C41.8887 31.825 42.8639 31.9576 43.8834 31.4122C44.4153 31.1174 44.8291 30.7047 45.2132 30.2625C45.5531 29.8645 45.9077 29.378 46.2327 28.8916C46.2623 28.8474 46.2918 28.8179 46.3214 28.7737C46.3509 28.7147 46.4248 28.6557 46.5282 28.6999C46.6021 28.7737 46.6317 28.7442 46.5873 28.8326C46.4691 29.2306 46.3214 29.5844 46.2771 29.7908C46.0406 30.2625 45.8781 30.7636 45.686 31.2648C45.4053 31.766 45.095 32.2524 44.6961 32.6947Z" fill="#7B412A"/>
<path d="M41.2239 30.9405C41.2682 30.9405 41.3273 30.9405 41.3716 30.9257C41.4455 30.911 41.5933 30.9405 41.5637 30.8225C41.5046 30.5867 41.7262 30.6604 41.8001 30.5572C41.7262 30.1445 41.6376 29.7022 41.9774 29.3337C42.0513 29.26 41.9922 29.1568 41.9922 29.0537C41.9627 28.5967 41.9183 28.1545 42.14 27.6975C42.2434 27.4912 42.3025 27.1963 42.2138 26.9163C42.1695 26.7689 42.1252 26.592 42.2582 26.4593C42.4355 26.4446 42.3616 26.6509 42.5241 26.6952C42.5389 26.4004 42.5537 26.1203 42.5685 25.8402C42.3912 25.737 41.9627 25.2358 41.9479 25.1474C41.9331 25.059 42.0956 25.2064 42.1991 25.3243C42.4059 25.5749 42.8049 25.5896 42.9674 25.4864C43.056 27.388 42.9674 29.319 42.5832 31.2795C42.1547 31.191 41.7558 31.1026 41.3569 31.0142C41.3273 30.9994 41.283 30.9699 41.2239 30.9405Z" fill="#A52A1C"/>
<path d="M45.6565 31.2353C45.7451 30.7046 45.9225 30.2034 46.2475 29.7612C46.1145 30.2771 45.8338 30.9405 45.6565 31.2353Z" fill="#7B412A"/>
<path d="M46.144 30.115C46.144 30.0561 46.4543 28.921 46.4543 28.8768C46.3657 28.7884 46.277 28.8621 46.2031 28.8768C46.2918 28.7442 46.4691 28.582 46.5578 28.4199C46.7203 28.7589 46.2622 29.8497 46.144 30.115Z" fill="#7B412A"/>
<path d="M17.0363 45.224C17.1692 45.1798 17.2136 45.283 17.2579 45.3714C17.7307 46.1822 18.5138 46.5654 19.3265 46.9487C20.1539 47.3319 21.0257 47.5825 21.9417 47.6562C23.2124 47.7742 24.4831 47.7152 25.7391 47.4056C28.4282 46.7571 30.7775 45.4157 32.9496 43.7647C34.5749 42.5118 35.9933 41.0377 37.2492 39.4015C37.988 38.4434 38.579 37.4115 39.1996 36.3797C39.303 36.2176 39.3917 36.0407 39.3917 35.7901C39.1701 35.5542 38.8302 35.4805 38.5495 35.3331C38.2688 35.1857 38.0028 35.0531 37.7516 34.8614C37.6482 34.7877 37.5152 34.714 37.5448 34.5519C37.663 34.4634 37.7812 34.5224 37.8846 34.5814C38.5052 35.0088 39.2292 35.2299 39.8645 35.6427C40.3226 35.8196 40.8102 35.8343 41.283 36.0112C41.2682 36.2323 41.1943 36.3944 41.1057 36.5566C40.9136 37.0578 40.6476 37.5295 40.4408 38.0306C39.4951 39.8585 38.3279 41.5094 36.9537 43.0424C35.816 44.3249 34.5158 45.4157 33.1416 46.418C32.2108 47.0961 31.206 47.6562 30.1865 48.1722C28.6646 48.9092 27.0836 49.4104 25.3992 49.5872C24.7639 49.6315 24.1285 49.6315 23.4932 49.5872C21.1586 49.3219 19.223 48.3048 17.7603 46.4623C17.4795 46.1232 17.0363 45.2977 17.0363 45.224Z" fill="#A3271A"/>
<path d="M40.4259 38.0013C40.5737 37.4706 40.8248 36.9989 41.0908 36.5272C41.0317 36.9252 40.8101 37.2643 40.6475 37.6328C40.5884 37.7507 40.5441 37.8834 40.4998 38.0013C40.4702 38.0013 40.4555 38.0013 40.4259 38.0013Z" fill="#731D13"/>
<path d="M26.4631 23.4818C26.9063 23.526 27.3348 23.5555 27.7929 23.5997C28.2952 25.0443 28.5612 26.533 28.6498 28.0808C27.5269 28.6262 26.4926 29.3338 25.2219 29.5254C24.1728 29.6875 23.2568 29.3632 22.4737 28.6704C21.927 28.1987 21.5132 27.6238 21.0995 27.049C20.9813 26.8868 20.8483 26.7099 20.6858 26.5773C20.4346 26.3562 20.1687 26.4446 20.08 26.7836C20.0061 27.0637 20.0505 27.3438 20.1096 27.6238C20.6119 29.9529 22.0452 31.4859 24.2319 32.3408C25.5322 32.8567 26.8916 32.9894 28.3543 32.8273C27.9997 34.5961 27.3348 36.1881 26.3153 37.6327C25.1037 39.3573 23.5818 40.6987 21.5576 41.4652C21.4837 40.9051 21.2916 40.4334 20.9074 40.0649C19.8732 39.0478 18.2478 39.1362 17.1692 40.3007C16.2827 41.2589 16.061 42.4381 16.2088 43.6911C16.2827 44.2807 16.3861 44.8703 16.6816 45.4157C16.918 46.1085 17.3613 46.6834 17.8341 47.2288C18.7945 48.2901 19.9618 49.0566 21.3212 49.5283C21.2768 49.602 21.203 49.5873 21.1291 49.602C19.9766 49.6168 18.8389 49.4841 17.7307 49.0861C17.4352 48.924 17.051 48.9534 16.8294 48.6439C16.327 48.3049 15.7655 48.0395 15.2779 47.671C13.7413 46.536 12.3524 45.2683 11.5397 43.5142C10.8305 42.0106 10.9191 40.4334 12.1012 39.3573C12.7809 38.7382 13.6379 38.4582 14.5244 38.2665C15.6769 38.016 16.8589 38.0307 18.0114 37.7948C19.0162 37.5885 20.0061 37.2937 20.7597 36.5566C21.6167 35.7164 21.8235 34.6846 21.4985 33.5496C21.203 32.4882 20.5824 31.6038 20.0209 30.6899C19.5038 29.8349 19.0457 28.9652 19.0457 27.9187C19.0605 26.4299 20.213 25.1327 21.7053 24.9116C22.3702 24.8084 23.0056 24.9411 23.6409 25.0295C24.9264 25.1917 25.6061 24.8821 26.2119 23.7471C26.2562 23.6144 26.3153 23.4965 26.4631 23.4818Z" fill="#FCEFA8"/>
<path d="M16.8146 48.5997C17.1101 48.7471 17.4352 48.8355 17.7159 49.0419C17.2431 48.9682 16.7998 48.806 16.3713 48.5997C16.5191 48.6144 16.6668 48.6144 16.8146 48.5997Z" fill="#F4B740"/>
<path d="M9.44153 44.5608C9.70749 44.6787 9.91435 44.8703 10.1212 45.0767C9.81092 45.003 9.57451 44.8556 9.44153 44.5608Z" fill="#3A280E"/>
<path d="M23.4636 49.5726C24.099 49.5726 24.7343 49.5726 25.3697 49.5726C24.7343 49.6758 24.099 49.6758 23.4636 49.5726Z" fill="#1C1A16"/>
<path d="M39.7611 35.7164C39.5394 35.4953 39.2439 35.3921 38.9632 35.2742C38.4608 35.0678 38.0471 34.7288 37.5447 34.5372C37.4118 34.5961 37.3083 34.5077 37.2049 34.4487C36.7764 34.1834 36.4218 33.8296 36.082 33.4759C35.9933 33.3874 35.949 33.2695 35.949 33.1516C35.949 33.0336 35.949 32.9305 36.0672 32.8568C36.8207 33.3874 37.5595 33.9181 38.4313 34.2424C38.9484 34.5077 39.5099 34.5961 40.0861 34.6993C40.0861 35.112 39.9236 35.4216 39.7611 35.7164Z" fill="#98271A"/>
<path d="M39.7611 35.7164C39.8645 35.4805 39.9679 35.171 39.9679 34.8172C39.436 34.6551 38.8893 34.6109 38.4313 34.2571C38.9927 34.4045 39.569 34.5519 40.1305 34.6993C40.7215 34.8467 41.1352 34.832 41.6671 34.7583C41.8001 34.9351 41.6523 35.0678 41.6228 35.23C41.4455 35.6722 41.4159 36.1586 41.1057 36.5566C41.15 36.4092 41.1795 36.2618 41.2239 36.0849C40.7215 35.9522 40.2339 35.8933 39.7611 35.7164Z" fill="#731D13"/>
<path d="M36.0819 32.8568C36.0524 32.9452 36.0376 33.0484 36.0081 33.1368C35.9933 33.1663 35.9637 33.1663 35.9342 33.1368C35.6978 32.7978 35.417 32.4882 35.2693 32.105C35.5352 32.3703 35.8012 32.6062 36.0819 32.8568Z" fill="#9E4631"/>
<path d="M6.26478 21.3148C6.08747 21.5212 6.08747 21.5212 5.88062 21.2706C6.02837 21.0937 6.1318 21.3591 6.26478 21.3148C6.26478 21.3001 6.26478 21.3148 6.26478 21.3148Z" fill="#1F1D18"/>
<path d="M35.9342 33.1663C35.9785 33.1516 35.9637 33.1516 36.0081 33.1516C36.3479 33.697 36.8207 34.0802 37.3379 34.4192C37.4561 34.4929 37.5595 34.5666 37.6629 34.6698C38.0619 35.0236 38.5642 35.2152 39.0371 35.4511C39.1996 35.5248 39.3769 35.5837 39.5394 35.7311C39.5099 36.1439 39.2587 36.4682 39.0666 36.822C38.2983 38.237 37.3526 39.5342 36.3036 40.7429C35.5057 41.6569 34.6339 42.4971 33.7179 43.2931C32.2994 44.5165 30.7332 45.5041 29.0635 46.3443C27.7337 47.0077 26.3301 47.5089 24.8525 47.73C23.1829 47.9806 21.5132 47.9216 19.9027 47.332C19.0309 47.0077 18.1887 46.6097 17.509 45.9464C17.317 45.7547 17.1988 45.4894 17.0362 45.2535C16.5191 44.0596 16.3713 42.8361 16.8146 41.5832C17.1692 40.6103 18.2183 39.6964 19.489 39.7995C20.2721 39.8732 21.07 40.6692 21.0995 41.4652C21.0995 41.6421 21.1291 41.8485 21.2473 42.0106C21.6462 41.9664 22.0008 41.7306 22.3702 41.5684C24.3501 40.6545 25.8277 39.1804 26.9802 37.3674C27.5121 36.5419 27.9111 35.6427 28.2509 34.7288C28.3691 34.5077 28.3543 34.1834 28.6646 34.1244C29.0635 34.0507 29.4625 33.8444 29.8762 34.0655C29.8023 34.6993 29.5364 35.2889 29.3 35.8786C28.5612 37.6327 27.586 39.2099 26.3153 40.6398C25.1185 41.9811 23.7148 43.0425 22.1338 43.8679C22.0008 43.8679 21.986 43.75 21.9565 43.6616C21.6905 42.954 21.1143 42.6592 20.4198 42.6002C19.7697 42.5413 19.1787 42.7477 18.7502 43.2783C18.3808 43.7353 18.4251 44.3544 18.8241 44.7818C19.4151 45.4157 20.3903 45.5631 21.2029 45.1651C21.3211 45.1061 21.4098 44.9735 21.5723 45.0472C24.424 45.1798 26.8029 43.9711 29.0488 42.4086C30.0831 41.6863 31.0139 40.8609 31.8709 39.9469C33.4076 38.3107 34.6635 36.4829 35.5353 34.4045C35.683 33.9623 35.9046 33.6085 35.9342 33.1663Z" fill="#E43727"/>
<path d="M21.4689 29.7613C20.8483 28.9505 20.538 28.0366 20.4198 26.9458C20.671 27.1227 20.7892 27.2848 20.9222 27.4765C21.4098 28.1988 21.9565 28.8473 22.6805 29.3338C23.8625 30.115 25.1037 30.174 26.4039 29.6286C27.2609 29.2748 28.0588 28.8179 28.8862 28.4199C29.4625 28.1545 30.0535 27.9776 30.6888 27.9924C31.4572 28.0071 32.5653 28.7589 32.6097 29.4664C32.6244 29.5549 32.6688 29.9529 32.5653 30.1003C32.521 30.1593 32.4324 29.6286 32.3733 29.6138C32.1221 29.5254 31.8709 29.4517 31.5901 29.437C30.8218 29.378 30.1421 29.6139 29.4772 29.9381C28.7237 30.3067 27.9701 30.7047 27.187 31.0142C26.4926 31.2795 25.7833 31.3532 25.0593 31.2648C23.9659 31.1321 22.9316 30.7931 22.0008 30.2035C21.7939 30.0561 21.6462 29.8939 21.4689 29.7613Z" fill="#7B422A"/>
<path d="M21.4689 29.7613C21.853 29.9824 22.2224 30.2035 22.6214 30.4098C23.6261 30.911 24.7047 31.1911 25.8424 31.1616C26.5369 31.1469 27.1722 30.911 27.7928 30.631C28.635 30.2477 29.4329 29.7465 30.3194 29.4517C30.9843 29.2306 31.6936 29.2011 32.3733 29.4812C32.4028 29.4959 32.4176 29.5107 32.4471 29.5254C32.5949 29.6286 32.6835 29.8202 32.6097 29.9971C32.5653 30.115 32.5062 30.233 32.4176 30.3361C31.9152 31.0142 31.206 31.4417 30.4524 31.7807C29.3295 32.2819 28.1474 32.5472 26.9211 32.4735C25.6947 32.3998 24.5422 32.105 23.4488 31.5006C22.7839 31.1469 21.528 29.8939 21.4689 29.7613Z" fill="#59311E"/>
<path d="M33.053 29.4664C33.0973 29.8939 33.378 30.0118 33.5258 30.572C33.6144 30.9847 33.644 31.2795 33.6144 31.4711C33.5997 31.6038 33.5849 31.707 33.6292 31.8249C33.4962 31.9134 33.3928 31.8249 33.2894 31.7807C32.5063 31.5006 31.7379 32.046 31.7527 32.8715C31.7527 33.0336 31.8414 33.2105 31.7084 33.3727C31.4277 33.4464 31.2503 33.5053 31.0287 33.5938C30.6741 33.7264 30.2456 33.9328 29.8762 34.0212C29.8614 33.9918 29.891 33.8738 29.9058 33.8296C30.024 33.299 30.0535 32.7536 30.3195 32.2671C31.0435 31.9134 31.7675 31.5743 32.3585 30.9994C32.8018 30.5867 33.0825 30.1003 33.053 29.4664Z" fill="#9E492D"/>
<path d="M30.4672 25.2801C30.5263 26.0319 30.6593 26.8426 30.615 27.5944C30.0978 27.6534 29.5807 27.6828 29.034 27.8892C28.9601 26.9606 28.8419 26.1056 28.6794 25.2654C28.6203 25.1475 28.635 25.0295 28.6794 24.8527C29.2999 24.8527 29.8762 25.059 30.4524 25.2654L30.4672 25.2801Z" fill="#E43727"/>
<path d="M30.4672 25.2654C29.8762 25.2801 29.3443 24.9853 28.768 24.9411C28.6498 25.0295 28.7237 25.1622 28.6941 25.2801C28.5168 24.7642 28.4725 24.2188 28.2213 23.6586C28.9453 23.6586 29.5954 23.6586 30.2456 23.6586C30.2603 24.204 30.3638 24.7347 30.4672 25.2654Z" fill="#A52B1C"/>
<path d="M30.3194 32.2671C30.2308 32.8272 29.9057 33.9917 29.8762 34.0212C29.4625 34.0212 29.0635 34.1244 28.6646 34.1686C28.3691 34.2128 28.4429 34.5519 28.2509 34.6845C28.3838 34.0949 28.6498 33.5348 28.7384 32.9157C28.768 32.7535 28.901 32.6651 29.0487 32.6356C29.492 32.5914 29.9057 32.3998 30.3194 32.2671Z" fill="#962719"/>
<path d="M21.5575 45.003C20.6562 45.6663 19.4741 45.5926 18.7501 44.8261C18.2625 44.3102 18.2625 43.5879 18.7354 43.072C19.5628 42.1728 21.1585 42.276 21.8973 43.2341C22.0451 43.4257 22.1337 43.5437 22.1337 43.8385C22.1337 44.3102 21.9269 44.6934 21.5575 45.003Z" fill="#F09B81"/>
<path d="M31.7083 33.3726C31.5015 32.503 31.7231 31.9723 32.4619 31.6775C32.8756 31.5006 33.2745 31.6185 33.6439 31.8249C34.102 32.1934 34.2793 32.6504 34.1167 33.2252C33.969 33.7264 33.6292 34.036 33.0972 34.1097C32.4619 34.1981 32.0038 33.9328 31.7083 33.3726Z" fill="#211E1C"/>
<path d="M31.6492 34.9647C31.4719 34.7878 31.3389 34.5962 31.2355 34.3751C31.2059 34.3014 31.1764 34.2277 31.1616 34.1539C31.2059 33.9918 31.2946 33.9328 31.4128 33.9623C31.5458 34.0065 31.5753 34.1245 31.6197 34.2129C32.122 35.1416 33.1711 35.3627 34.0281 34.7288C34.294 34.5225 34.5157 34.493 34.5009 34.6994C34.4418 35.2153 33.0086 35.7459 32.2255 35.3627C32.0038 35.2595 31.8117 35.1268 31.6492 34.9647Z" fill="#281D16"/>
<path d="M25.3844 46.0053C25.3844 46.4918 25.0446 46.8456 24.557 46.8456C24.0546 46.8456 23.6852 46.477 23.7 45.9906C23.7 45.5484 24.0842 45.2093 24.5422 45.2093C25.0446 45.1946 25.3844 45.5189 25.3844 46.0053Z" fill="#EE9980"/>
<path d="M32.9052 33.7412C32.4324 33.7412 32.0335 33.358 32.0187 32.8863C32.0039 32.4146 32.4029 32.0018 32.8609 32.0018C33.3337 31.9871 33.777 32.4146 33.7622 32.8715C33.777 33.3432 33.3781 33.7265 32.9052 33.7412Z" fill="#FCFCFC"/>
</g>
<defs>
<clipPath id="clip0">
<rect width="53" height="50" fill="white"/>
</clipPath>
</defs>
</svg>
