<svg width="56" height="68" viewBox="0 0 56 68" fill="none" xmlns="http://www.w3.org/2000/svg">
<path d="M55.8684 42.7653C55.8684 43.4021 55.7765 44.0389 55.611 44.6565C55.3904 45.4091 55.1881 46.181 54.9675 46.9336C54.8756 47.2231 54.6917 47.474 54.563 47.7441C54.4711 47.7248 54.4711 47.7248 54.3792 47.7248C54.324 47.4933 54.2505 47.281 54.2137 47.0494C53.9747 45.4863 53.2393 44.2512 52.0626 43.267C50.6837 42.1091 49.1026 41.3565 47.503 40.6425C45.7197 39.832 43.8995 39.0407 42.1161 38.2109C40.4614 37.439 38.9171 36.4934 37.5933 35.1618C35.8835 33.4443 35.2768 31.3215 35.5709 28.8128C35.7732 28.89 35.9386 28.89 36.0306 28.9865C37.2256 30.0865 38.6965 30.5303 40.2041 30.8391C42.0242 31.2058 43.8811 31.4566 45.7013 31.8233C47.5582 32.19 49.36 32.7496 51.033 33.7531C53.4967 35.2583 55.041 37.4197 55.6845 40.3337C55.7948 40.8355 55.8868 41.6653 55.8868 42.1863V42.7653H55.8684Z" fill="#4A79BD"/>
<path d="M37.5562 66.8299C36.2141 66.0966 35.3132 64.823 34.6514 63.2598C34.2101 62.237 33.7872 61.2142 33.2908 60.2107C32.4819 58.5704 31.2684 57.4125 29.5218 56.9494C27.7568 56.4862 26.0286 57.6055 25.7896 59.3423C25.5322 61.1563 27.5178 62.8546 29.1541 62.2563C30.0366 61.9282 30.5514 61.0791 30.4595 60.0756C30.3676 59.1493 29.7976 58.5704 28.8232 58.4353C28.29 58.3581 27.8671 58.5511 27.5178 58.9564C27.3891 59.1107 27.2788 59.2844 27.095 59.5353C27.1501 58.2616 28.1797 57.5476 29.3747 57.8371C31.4155 58.3388 32.1326 60.9826 30.6617 62.6423C29.6321 63.8195 27.8671 64.0896 26.3595 63.2598C25.9735 63.0475 25.6241 62.7581 25.2932 62.4686C24.9071 62.1212 24.3004 61.523 23.9694 61.137C22.4067 59.2844 20.4395 58.2616 18.1045 58.0108C17.792 57.9722 17.4794 57.8757 17.0198 57.7599C18.1413 56.6406 19.226 55.7722 20.4211 55.0582C22.4986 53.7845 24.7049 52.8003 27.1133 52.6652C29.8712 52.5301 32.4635 53.0705 34.4675 55.3283C35.6074 56.6213 36.0119 58.2037 36.306 59.8634C36.4899 60.8669 36.637 61.8897 36.8208 62.8931C37.3356 65.7493 39.0455 66.6177 41.6746 66.1159C42.1894 66.0194 42.7041 65.8264 43.2373 65.73C42.4468 66.5791 41.4907 67.0615 40.3876 67.2545C40.3876 67.2545 40.3876 67.2545 40.3692 67.2545C39.3948 67.4089 38.402 67.2931 37.5562 66.8299Z" fill="#4A79BD"/>
<path d="M22.2045 25.2022C21.5978 24.4882 20.9727 23.7741 20.366 23.0601C18.123 20.4742 15.8984 17.8883 13.6737 15.3023C11.5778 12.8901 9.48186 10.4778 7.38593 8.04626C5.69448 6.11646 0.43626 0.36565 0.381104 0.404246C0.491416 0.577928 0.583343 0.75161 0.71204 0.905995C1.72324 2.21826 2.7712 3.53053 3.80078 4.84279C6.0438 7.75679 8.28682 10.6708 10.5298 13.5655C12.7361 16.4023 14.9423 19.2198 17.1486 22.0373C18.2701 23.4847 19.3916 24.9127 20.4763 26.3794C20.9727 27.0548 20.936 27.5566 20.2925 28.0197C18.9871 28.9846 17.2956 29.2934 16.1925 27.6338C15.4939 26.5724 14.7952 25.5303 14.1334 24.4496C12.3132 21.5163 10.5298 18.583 8.70968 15.6497C8.59937 15.4567 8.4339 15.3023 8.28682 15.1286C8.83838 16.5374 9.53702 17.8497 10.2173 19.1426C11.6881 21.9408 13.1589 24.7583 14.6482 27.5566C15.1262 28.425 15.0894 29.1583 14.4091 29.9109C13.6553 30.7407 13.2509 31.7635 13.067 32.9021C12.8464 34.2337 12.6441 35.5652 12.3132 36.8582C11.7249 39.1354 10.3276 40.9494 9.00385 42.7827C8.21327 43.8827 7.31239 44.9248 6.74244 46.1599C5.47385 48.9388 6.02541 51.6791 7.31239 54.2843C8.02942 55.7317 8.85676 57.1018 9.70249 58.6071C9.97827 58.5685 13.6921 57.4106 15.1078 56.7545C15.88 56.4071 16.5786 55.8282 17.1853 55.2106C19.1158 53.3387 18.9503 50.7721 16.8728 49.0932C16.1741 48.5335 15.4387 47.9932 14.7585 47.4142C13.0302 45.9669 12.5522 43.9792 13.4163 41.8178C13.7657 40.9687 14.1334 40.1196 14.5011 39.2705C14.9975 38.1319 15.3468 36.9547 15.4571 35.681C15.5123 34.8126 15.6226 33.9635 15.788 33.1144C15.9719 32.1302 16.5786 31.5513 17.5347 31.3969C17.9575 31.339 18.3804 31.2811 18.8032 31.1846C20.2741 30.8565 21.6162 30.2776 22.4803 28.9074C23.3261 27.5759 23.2341 26.3987 22.2045 25.2022ZM9.90473 50.8107C9.66572 50.9458 9.29801 50.9651 9.07739 50.8686C8.91192 50.7914 8.78322 50.3475 8.85676 50.1545C9.02223 49.6914 8.96707 49.3054 8.74645 48.9774C8.65452 48.8616 8.67291 48.6879 8.76483 48.5721C9.04062 48.2633 9.37155 48.3405 9.6841 48.4756C10.1437 48.6686 10.3827 49.0546 10.4195 49.5949C10.4379 50.0966 10.346 50.5791 9.90473 50.8107Z" fill="#4A79BD"/>
<path d="M22.0573 13.799C24.7415 13.799 27.1316 15.1498 29.0989 17.0603C29.7975 17.7357 30.4594 18.4498 31.1029 19.1638C31.4154 19.5305 31.8934 19.6849 32.3531 19.5884C35.2212 19.0287 38.0341 19.241 40.8287 20.0322C42.4099 20.4761 43.8439 21.248 45.2228 22.1357C45.6457 22.4059 45.8663 22.7918 45.9582 23.2936C46.234 24.7409 46.2524 26.169 45.6273 27.5199C45.6089 27.5777 45.5721 27.6356 45.5538 27.6935C45.3699 28.1567 45.4434 28.5812 45.8479 28.89C46.2524 29.1988 46.6753 29.1023 47.0246 28.7935C47.6313 28.2918 47.9071 27.5777 48.1277 26.8444C48.2748 26.362 48.4035 25.8795 48.5322 25.3778C50.0766 26.2076 52.2828 30.6268 52.1909 32.7303C52.0254 32.5373 51.8967 32.4216 51.8048 32.2672C50.9039 30.8005 49.5618 30.0093 47.9622 29.7584C46.4914 29.5461 44.9838 29.4111 43.4946 29.3532C41.0493 29.2374 38.7144 28.7356 36.5265 27.5584C35.2947 26.9023 34.3019 25.8795 33.4194 24.7602C31.8199 22.7339 30.2939 20.6498 28.676 18.6621C26.8926 16.4621 24.7231 14.7446 21.9653 14.127C21.7447 14.0691 21.5241 14.0884 21.3035 13.9919C21.3402 13.9147 21.7447 13.799 22.0573 13.799Z" fill="#4A79BD"/>
<path d="M42.5203 39.9861C45.2045 41.6844 47.9439 42.9194 50.2605 44.8685C52.7793 46.972 53.9192 49.7123 53.7353 53.1281C53.5331 56.7561 52.0071 59.535 49.1941 61.5806C48.8448 61.8315 48.4219 62.0052 47.8336 62.3139C47.9991 61.7929 48.091 61.4841 48.2013 61.1947C49.0471 59.0333 48.9551 56.9105 47.8888 54.8842C46.8224 52.8772 45.6274 50.9281 44.4507 48.979C43.6418 47.6282 42.8512 46.258 42.3916 44.7142C42.0422 43.5563 42.0606 42.3791 42.1525 41.2019C42.1893 40.8546 42.3548 40.5072 42.5203 39.9861Z" fill="#4A79BD"/>
<path d="M20.403 15.4395C21.9106 15.5166 23.0872 16.1342 23.9881 17.2342C24.4478 17.7938 24.7787 18.5271 25.0177 19.2219C25.3303 20.1289 25.5325 21.0745 25.7163 22.0201C25.9554 23.2937 26.4334 24.4709 27.1136 25.5516C27.2056 25.6867 27.2791 25.8218 27.3526 25.9569C27.61 26.5358 27.463 26.8832 26.8746 26.8253C26.2863 26.7674 25.6612 26.613 25.1464 26.3235C23.8778 25.6288 22.8666 24.606 22.1312 23.313C20.9545 21.2289 20.2927 18.9903 20.311 16.5587C20.311 16.1921 20.3662 15.864 20.403 15.4395Z" fill="#4A79BD"/>
<path d="M39.7259 38.7897C40.4062 39.5424 40.8658 40.4301 41.0313 41.4529C41.638 45.3704 39.5972 48.0528 36.4166 49.0756C35.3502 49.4229 34.2103 49.6159 33.0888 49.6738C30.6803 49.8089 28.2902 49.9633 25.9737 50.6966C25.9553 50.6966 25.9185 50.658 25.845 50.6001C26.4885 50.0019 27.2239 49.5194 28.0144 49.3072C29.5772 48.8633 31.1583 48.5159 32.7211 48.13C33.8794 47.8405 35.0744 47.6668 36.1776 47.2423C39.0641 46.123 40.4613 43.3248 39.7995 40.1599C39.7075 39.7353 39.634 39.3108 39.5421 38.8862C39.634 38.8283 39.634 38.8476 39.7259 38.7897Z" fill="#4A79BD"/>
<path d="M27.5733 33.4055C27.0953 32.2477 26.0106 31.5529 24.7052 31.5722C23.6021 31.5915 22.6645 32.3442 22.2416 33.5213C21.6349 35.2582 22.3703 36.4546 24.2824 36.4353C25.1832 36.3388 26.2864 36.2231 27.1689 35.3354C27.7204 34.795 27.8491 34.1003 27.5733 33.4055ZM24.9259 33.9266C24.264 33.9266 23.6756 33.5213 23.6756 33.0582C23.6756 32.6143 24.264 32.1705 24.8891 32.1319C25.5693 32.0933 26.3048 32.5757 26.2864 33.0775C26.2864 33.5406 25.6613 33.9266 24.9259 33.9266Z" fill="#4A79BD"/>
<path d="M46.8226 18.141C46.841 19.7428 47.8521 20.8814 48.8633 21.9621C49.3597 22.4831 49.47 22.6954 49.9481 23.2164C50.1503 23.448 50.7938 24.3743 50.757 24.4322C50.0032 23.8147 49.2494 23.2164 48.514 22.6375C48.2198 22.3866 47.7602 22.5796 47.7051 22.9656C47.6867 23.1006 47.6867 23.2357 47.6683 23.3708C47.5947 24.2392 47.1903 26.7094 46.8961 27.0567C46.8961 26.3234 47.0432 25.648 47.08 24.8761C47.2087 22.2129 46.2342 20.4375 43.9361 19.4533C43.3477 19.1252 42.7226 18.9323 42.2446 18.4884C42.4285 18.5077 43.1271 18.6814 43.311 18.7393C44.1751 19.0288 44.5428 19.1831 45.4069 19.4726C45.8481 19.627 46.2342 19.3375 46.2894 18.8744C46.3629 18.2375 46.3997 17.6007 46.4916 16.9639C46.5284 16.6744 46.6387 16.3849 46.7306 16.0955C46.7858 16.0955 46.8226 17.4849 46.8226 18.141Z" fill="#4A79BD"/>
</svg>
